<?xml version="1.0" encoding="UTF-8"?>
<svg version="1.1" xmlns="http://www.w3.org/2000/svg" width="890" height="862">
<path d="M0 0 C3.66190236 0.53130906 7.33268816 0.99435635 11.00231934 1.46868896 C45.33104839 5.97083256 78.79698497 13.2435184 111.28625488 25.41912842 C117.1340234 27.54994614 122.24686283 28.5984753 128.44396973 28.98797607 C132.90170873 29.51833399 136.70907623 31.25417141 140.76013184 33.11322021 C142.09419067 33.70719604 142.09419067 33.70719604 143.4552002 34.31317139 C166.03863364 44.50031691 187.72632889 56.13097352 208.07263184 70.30072021 C208.6101709 70.67374268 209.14770996 71.04676514 209.70153809 71.43109131 C267.20849701 111.46654535 310.55313623 164.15176579 343.59753418 225.58001709 C344.64364077 227.5094795 345.70259181 229.43200295 346.77038574 231.34954834 C347.32000977 232.33890381 347.86963379 233.32825928 348.43591309 234.34759521 C349.19255249 235.69869385 349.19255249 235.69869385 349.96447754 237.0770874 C351.07263184 239.30072021 351.07263184 239.30072021 351.07263184 241.30072021 C351.96981934 241.64103271 351.96981934 241.64103271 352.88513184 241.98822021 C369.6932434 252.07308716 378.30837632 300.28220758 382.94763184 318.67572021 C407.36754908 419.10913973 397.38325704 524.14540727 336.07263184 650.30072021 C335.59535645 651.11991943 335.11808105 651.93911865 334.62634277 652.78314209 C316.47515576 683.77045638 293.09583175 711.29387399 267.82263184 736.67572021 C267.07803711 737.42498779 266.33344238 738.17425537 265.56628418 738.94622803 C260.89684653 743.60217319 256.0812158 748.01357579 251.07263184 752.30072021 C250.10841309 753.14634521 249.14419434 753.99197021 248.15075684 754.86322021 C219.57544445 779.49166625 187.65997103 799.32614382 154.07263184 816.30072021 C153.32545898 816.67970459 152.57828613 817.05868896 151.80847168 817.44915771 C114.89382466 835.99800514 74.86289673 846.33204239 34.32263184 853.11322021 C33.00744064 853.33402756 33.00744064 853.33402756 31.66567993 853.55929565 C14.15056314 856.47604962 -3.14870689 858.72288641 -20.92736816 858.67572021 C-21.68115753 858.67550873 -22.4349469 858.67529724 -23.21157837 858.67507935 C-36.20089962 858.63914125 -48.56040169 857.23556912 -61.34436035 854.90374756 C-65.4376555 854.21483784 -69.53729654 853.66046941 -73.65393066 853.13275146 C-91.38064453 850.85318517 -108.68565831 848.16217865 -125.92736816 843.30072021 C-126.96973633 843.00826416 -128.01210449 842.71580811 -129.08605957 842.41448975 C-179.79784407 827.95929721 -232.1857184 804.91451421 -270.92736816 768.30072021 C-272.31803439 767.08644364 -273.7136978 765.8778607 -275.11486816 764.67572021 C-278.89553915 761.38287774 -282.41959368 757.87943846 -285.92736816 754.30072021 C-289.44314307 750.7227192 -293.07106158 747.29195439 -296.75061035 743.88494873 C-347.65802814 696.6031714 -347.65802814 696.6031714 -351.86486816 669.61322021 C-352.68445203 664.60362896 -355.58773384 661.50566222 -358.85705566 657.75775146 C-360.92736816 655.30072021 -360.92736816 655.30072021 -362.78283691 652.42572021 C-365.32074868 648.72748814 -368.2440691 645.69263135 -371.36486816 642.48822021 C-378.90290139 634.58247805 -385.47718407 626.10263201 -391.92736816 617.30072021 C-392.59252441 616.40997803 -393.25768066 615.51923584 -393.94299316 614.60150146 C-410.25626118 592.15170038 -421.02839621 565.97902402 -431.77893066 540.58978271 C-432.45012939 539.01402466 -432.45012939 539.01402466 -433.1348877 537.40643311 C-433.97534135 535.42754101 -434.80751713 533.44510568 -435.63000488 531.4586792 C-436.00657227 530.5725293 -436.38313965 529.68637939 -436.77111816 528.77337646 C-437.09273926 528.00259766 -437.41436035 527.23181885 -437.74572754 526.43768311 C-438.85667263 524.18284431 -438.85667263 524.18284431 -440.90246582 522.38861084 C-447.74610371 515.33208911 -449.23047872 502.67425699 -451.05236816 493.36322021 C-451.30462158 492.11427979 -451.556875 490.86533936 -451.81677246 489.57855225 C-453.86892632 479.17380706 -455.43237764 468.73573013 -456.63366699 458.20062256 C-456.90656349 456.08382989 -456.90656349 456.08382989 -457.92736816 453.30072021 C-459.34463053 454.48982273 -459.34463053 454.48982273 -459.04089355 457.90252686 C-459.04073441 459.50531878 -459.0350388 461.10811582 -459.02502441 462.71087646 C-459.02290199 463.9739286 -459.02290199 463.9739286 -459.02073669 465.26249695 C-459.0151208 467.96277356 -459.00256565 470.66296849 -458.98986816 473.36322021 C-458.98485521 475.1893909 -458.98029195 477.01556287 -458.97619629 478.84173584 C-458.96514621 483.32809564 -458.94787096 487.81439406 -458.92736816 492.30072021 C-459.58736816 492.63072021 -460.24736816 492.96072021 -460.92736816 493.30072021 C-461.91736816 492.64072021 -462.90736816 491.98072021 -463.92736816 491.30072021 C-474.26830104 522.32351883 -442.71625941 585.12942373 -430.09777832 613.64984131 C-428.44460428 617.39413912 -426.84281456 621.15973214 -425.23986816 624.92572021 C-424.46971604 626.71767981 -423.69922392 628.50949377 -422.92736816 630.30072021 C-423.58736816 630.96072021 -424.24736816 631.62072021 -424.92736816 632.30072021 C-438.54194697 622.4459136 -444.72700621 599.91378746 -451.34533691 585.13421631 C-452.64992871 582.22458411 -453.97444277 579.3247592 -455.30236816 576.42572021 C-455.68248047 575.55874512 -456.06259277 574.69177002 -456.45422363 573.79852295 C-458.8570204 568.59804226 -460.92260507 566.32795851 -465.92736816 563.30072021 C-503.56805257 508.93084274 -498.0400719 416.55360117 -487.98986816 354.67572021 C-487.86875671 353.92860779 -487.74764526 353.18149536 -487.62286377 352.41174316 C-486.15124704 343.45475577 -484.3362306 334.63795601 -482.26127625 325.80232239 C-481.23565437 321.25266736 -480.68726784 316.93528923 -480.51330566 312.25775146 C-480.07661277 303.67809308 -477.35410235 296.03770131 -474.55236816 287.98822021 C-474.28581421 287.20579956 -474.01926025 286.42337891 -473.74462891 285.61724854 C-468.92653687 271.47636765 -463.38872175 257.77946419 -456.92736816 244.30072021 C-456.56159668 243.53437256 -456.1958252 242.7680249 -455.81896973 241.97845459 C-453.91097698 238.01197952 -451.93885875 234.08412544 -449.90441895 230.18109131 C-448.88725707 228.2235249 -447.88954365 226.25673556 -446.89221191 224.28900146 C-425.845594 183.1931439 -395.52910921 143.25844975 -360.21643066 113.24993896 C-358.35829287 111.66766805 -356.52616266 110.06482381 -354.70080566 108.44525146 C-338.49298883 94.12328416 -321.13543719 80.64136361 -302.61486816 69.42572021 C-299.44513379 67.46418056 -298.0289311 66.45306461 -295.92736816 63.30072021 C-292.69013521 58.44487079 -287.91678545 56.17967134 -282.92736816 53.30072021 C-282.32183105 52.94526123 -281.71629395 52.58980225 -281.09240723 52.22357178 C-232.77684051 23.96444182 -179.16593081 7.2046661 -123.92736816 -0.69927979 C-122.84793945 -0.86444092 -121.76851074 -1.02960205 -120.65637207 -1.19976807 C-81.31869717 -7.04391181 -39.27449621 -5.86594837 0 0 Z M-52.30236816 101.36322021 C-54.92736816 103.30072021 -54.92736816 103.30072021 -57.55236816 103.17572021 C-59.92736816 102.30072021 -59.92736816 102.30072021 -62.92736816 100.30072021 C-65.26947526 99.9462667 -65.26947526 99.9462667 -67.80236816 99.98822021 C-68.64541504 99.9714624 -69.48846191 99.95470459 -70.35705566 99.93743896 C-73.00209066 100.12443695 -73.00209066 100.12443695 -75.13439941 101.75384521 C-79.197509 104.00418283 -83.16170537 104.04318676 -87.73986816 104.36322021 C-94.04247363 104.83791309 -99.81475352 105.68682856 -105.92736816 107.30072021 C-106.91736816 107.28009521 -107.90736816 107.25947021 -108.92736816 107.23822021 C-112.1101282 107.12916535 -112.1101282 107.12916535 -115.53674316 108.73822021 C-119.27697353 110.19100532 -122.69682244 110.74465924 -126.6739502 111.12176514 C-145.99795153 112.98556827 -182.45883304 121.92677443 -196.30236816 136.86322021 C-198.11226823 139.08981858 -198.11226823 139.08981858 -197.92736816 141.30072021 C-198.83229004 141.3045874 -198.83229004 141.3045874 -199.75549316 141.30853271 C-202.27140173 141.43027023 -204.49607318 141.6284143 -206.92736816 142.30072021 C-208.3244909 144.25669205 -209.66516724 146.25508423 -210.92736816 148.30072021 C-213.90410788 148.73482809 -215.92908127 148.67561336 -218.74768066 147.61712646 C-223.75483837 146.89028099 -228.81883615 150.74795232 -232.92736816 153.30072021 C-235.35331592 155.38649818 -237.44289009 157.4489597 -238.92736816 160.30072021 C-238.92736816 161.62072021 -238.92736816 162.94072021 -238.92736816 164.30072021 C-243.34228325 165.58505915 -246.77951867 166.39993293 -251.36486816 165.98822021 C-256.27997866 165.92950729 -258.84222494 167.7145909 -262.49377441 170.87884521 C-271.54517737 179.88666196 -279.16917303 190.12292222 -286.86877441 200.27728271 C-289.56598358 203.83143087 -292.27989269 207.3672949 -295.05236816 210.86322021 C-295.73557129 211.73075928 -296.41877441 212.59829834 -297.12268066 213.49212646 C-297.71822754 214.0889624 -298.31377441 214.68579834 -298.92736816 215.30072021 C-299.91736816 215.30072021 -300.90736816 215.30072021 -301.92736816 215.30072021 C-302.25736816 213.65072021 -302.58736816 212.00072021 -302.92736816 210.30072021 C-320.94364685 215.86130006 -336.79482752 251.55383719 -344.99768066 267.02728271 C-366.55059852 308.60809921 -384.92736816 361.56430812 -384.92736816 409.30072021 C-385.91736816 408.97072021 -386.90736816 408.64072021 -387.92736816 408.30072021 C-388.25736816 405.66072021 -388.58736816 403.02072021 -388.92736816 400.30072021 C-390.24736816 400.30072021 -391.56736816 400.30072021 -392.92736816 400.30072021 C-394.26442251 402.9748289 -394.05451123 405.02194497 -394.0567627 408.01629639 C-394.05991486 409.21481735 -394.06306702 410.41333832 -394.0663147 411.6481781 C-394.06429047 412.95019669 -394.06226624 414.25221527 -394.06018066 415.59368896 C-394.0608544 416.94169635 -394.06182502 418.28970361 -394.06307983 419.63771057 C-394.06455603 422.46818189 -394.06240646 425.2986217 -394.05773926 428.12908936 C-394.05206929 431.74248133 -394.05530402 435.35579857 -394.06131172 438.96918774 C-394.06494282 441.75658215 -394.06376661 444.54395917 -394.06118393 447.33135414 C-394.06019892 449.30707981 -394.063219 451.28280617 -394.0663147 453.25852966 C-394.17720491 461.84945538 -394.17720491 461.84945538 -392.92736816 470.30072021 C-391.93736816 470.96072021 -390.94736816 471.62072021 -389.92736816 472.30072021 C-389.67342285 471.7580249 -389.41947754 471.21532959 -389.15783691 470.65618896 C-388.81365723 469.94075928 -388.46947754 469.22532959 -388.11486816 468.48822021 C-387.77842285 467.7805249 -387.44197754 467.07282959 -387.09533691 466.34368896 C-385.91598642 464.28081169 -384.63404254 462.93258147 -382.92736816 461.30072021 C-381.56961485 458.58521359 -381.76513015 456.37657516 -381.71643066 453.33978271 C-381.6738916 451.5492749 -381.6738916 451.5492749 -381.63049316 449.72259521 C-381.57857358 447.1993035 -381.53425401 444.67584352 -381.49768066 442.15228271 C-381.46674316 440.95603271 -381.43580566 439.75978271 -381.40393066 438.52728271 C-381.38411133 437.42980713 -381.36429199 436.33233154 -381.34387207 435.20159912 C-380.88043549 431.97384209 -380.01596276 430.73434406 -377.92736816 428.30072021 C-376.57578249 425.00004911 -375.39914852 421.65853589 -374.20861816 418.29681396 C-373.04198398 415.5687395 -372.18811523 414.14743511 -369.92736816 412.30072021 C-370.0427142 413.86396253 -370.17011943 415.42631704 -370.30236816 416.98822021 C-370.37197754 417.8583374 -370.44158691 418.72845459 -370.51330566 419.62493896 C-370.92736816 422.30072021 -370.92736816 422.30072021 -371.90002441 424.50775146 C-373.15719265 427.92552822 -373.45654329 431.03635446 -373.77893066 434.66400146 C-373.8426889 435.37364548 -373.90644714 436.08328949 -373.97213745 436.81443787 C-374.1051984 438.31775508 -374.23440041 439.82141822 -374.35998535 441.32537842 C-374.54864313 443.56892163 -374.75261581 445.81066456 -374.95861816 448.05267334 C-376.73914641 465.26637955 -376.73914641 465.26637955 -374.92736816 482.30072021 C-372.7424681 479.62429533 -372.7424681 479.62429533 -372.92736816 477.30072021 C-371.93736816 477.30072021 -370.94736816 477.30072021 -369.92736816 477.30072021 C-369.21460715 483.12173052 -368.87017691 488.76820071 -369.04284668 494.62908936 C-369.30076238 503.74881358 -368.4780753 511.96519073 -366.41369629 520.840271 C-364.91565763 527.51442746 -364.45107372 533.96198649 -364.69519043 540.80096436 C-364.6780528 547.16176551 -362.40577963 552.20100038 -359.78144836 557.87069702 C-356.20602432 565.6630579 -353.76823999 573.72884686 -351.30236816 581.92572021 C-348.74317676 590.33919924 -346.1811163 598.75034275 -343.34143066 607.07415771 C-342.97227539 608.15874268 -342.60312012 609.24332764 -342.22277832 610.36077881 C-340.54650741 614.16508606 -338.64444987 617.43246003 -334.85705566 619.34759521 C-334.17900879 619.57962646 -333.50096191 619.81165771 -332.80236816 620.05072021 C-330.08864268 621.26130408 -329.15011402 621.77916893 -327.96643066 624.55072021 C-327.47965386 626.80823581 -327.12394082 629.00082009 -326.92736816 631.30072021 C-324.61736816 631.63072021 -322.30736816 631.96072021 -319.92736816 632.30072021 C-319.92736816 633.95072021 -319.92736816 635.60072021 -319.92736816 637.30072021 C-324.80236816 635.55072021 -324.80236816 635.55072021 -325.92736816 633.30072021 C-327.24736816 633.30072021 -328.56736816 633.30072021 -329.92736816 633.30072021 C-328.37306963 641.40079116 -321.12002597 647.37832632 -315.30236816 652.73822021 C-314.64752441 653.36148193 -313.99268066 653.98474365 -313.31799316 654.62689209 C-312.68119629 655.21921631 -312.04439941 655.81154053 -311.38830566 656.42181396 C-310.81902344 656.95218262 -310.24974121 657.48255127 -309.66320801 658.0289917 C-307.73837066 659.43918548 -306.28198327 659.97221996 -303.92736816 660.30072021 C-302.63650078 659.22232574 -302.63650078 659.22232574 -302.67736816 656.65618896 C-302.97418983 652.67228573 -304.11278552 650.16542775 -305.92736816 646.61322021 C-306.23843506 646.00309082 -306.54950195 645.39296143 -306.86999512 644.76434326 C-308.96967184 640.7709427 -311.36609014 637.20261891 -314.11486816 633.61322021 C-317.40177539 629.29166273 -319.2780529 625.34936172 -320.92346191 620.19915771 C-322.45778013 615.76933625 -324.57622977 611.63617885 -326.65783691 607.44134521 C-328.03359777 604.03792451 -328.54784534 600.94048128 -328.92736816 597.30072021 C-325.92736816 598.30072021 -325.92736816 598.30072021 -324.39221191 600.91790771 C-323.88818848 601.99298584 -323.38416504 603.06806396 -322.86486816 604.17572021 C-321.34175226 607.392479 -319.90374392 610.33615658 -317.92736816 613.30072021 C-317.47904052 614.68670872 -317.06506428 616.08406441 -316.67736816 617.48822021 C-315.29120968 621.85886277 -313.18441031 624.79269348 -310.34533691 628.33978271 C-307.70129626 631.99627971 -306.39021575 636.17749875 -305.43518066 640.55853271 C-303.8362818 647.01983635 -300.91465878 649.07844889 -295.36486816 652.53900146 C-292.22904077 654.80544081 -290.75885157 657.24930342 -288.93908691 660.60150146 C-287.98341464 662.47227799 -287.98341464 662.47227799 -285.86486816 663.73822021 C-283.5763481 665.58380091 -283.17796447 666.90142371 -282.11486816 669.61322021 C-280.04997284 674.62912735 -277.15055465 677.06674858 -272.92736816 680.30072021 C-269.25779279 683.7142787 -266.57306896 687.08719673 -263.92736816 691.30072021 C-262.60736816 690.97072021 -261.28736816 690.64072021 -259.92736816 690.30072021 C-260.19562805 684.93552249 -262.25592846 682.23327084 -265.65002441 678.32806396 C-267.22614656 675.8265123 -267.16382101 674.20355618 -266.92736816 671.30072021 C-267.48166504 671.1189624 -268.03596191 670.93720459 -268.60705566 670.74993896 C-269.69373535 670.37288818 -269.69373535 670.37288818 -270.80236816 669.98822021 C-271.52166504 669.7445874 -272.24096191 669.50095459 -272.98205566 669.24993896 C-274.92736816 668.30072021 -274.92736816 668.30072021 -276.92736816 665.30072021 C-276.83455566 663.63009521 -276.83455566 663.63009521 -276.73986816 661.92572021 C-276.57855006 658.2719058 -276.57855006 658.2719058 -278.80236816 655.92572021 C-279.8283638 655.03239643 -280.87354059 654.16103521 -281.92736816 653.30072021 C-283.64481208 651.83214158 -285.35237116 650.35196028 -287.05236816 648.86322021 C-288.32467285 647.78234131 -288.32467285 647.78234131 -289.62268066 646.67962646 C-292.86375594 643.33417758 -294.80916898 640.11310775 -295.11486816 635.42572021 C-295.05299316 634.72447021 -294.99111816 634.02322021 -294.92736816 633.30072021 C-293.27736816 632.97072021 -291.62736816 632.64072021 -289.92736816 632.30072021 C-289.55611816 633.37322021 -289.18486816 634.44572021 -288.80236816 635.55072021 C-287.05946233 639.61478568 -284.73578391 641.03031852 -280.92736816 643.30072021 C-279.65342276 644.22698469 -278.40355814 645.18710455 -277.17736816 646.17572021 C-276.60502441 646.62689209 -276.03268066 647.07806396 -275.44299316 647.54290771 C-273.92736816 649.30072021 -273.92736816 649.30072021 -272.98596191 652.22259521 C-271.78364933 655.71861852 -270.43020206 657.18449881 -267.73986816 659.67572021 C-264.74173288 662.52971438 -261.91227271 665.3891702 -259.23986816 668.55072021 C-255.86160523 672.45346233 -252.4453397 675.97399681 -247.82189941 678.41009521 C-240.05866841 682.5133364 -234.89289969 688.36749157 -229.12658691 694.83978271 C-226.59792327 697.65478805 -223.94794777 700.00761004 -220.92736816 702.30072021 C-220.10236816 703.14634521 -219.27736816 703.99197021 -218.42736816 704.86322021 C-216.08771696 707.34617393 -216.08771696 707.34617393 -213.42736816 708.73822021 C-210.92736816 710.30072021 -210.92736816 710.30072021 -208.70861816 713.10150146 C-205.89736217 716.55466091 -202.69735418 718.73878435 -198.92736816 721.05072021 C-198.32408691 721.4361499 -197.72080566 721.82157959 -197.09924316 722.21868896 C-192.59856674 725.04628785 -188.5567087 726.95770115 -183.36486816 728.05072021 C-179.04083352 729.62309645 -178.30685444 731.46283913 -175.92736816 735.30072021 C-171.59662279 738.6888916 -167.82990238 740.02791347 -162.48986816 741.17572021 C-156.16773479 742.65771081 -152.47022033 744.65462141 -147.92736816 749.30072021 C-144.78522678 750.34810068 -142.88572397 750.28060841 -139.61486816 750.11322021 C-133.5889754 750.0496224 -130.60872109 751.82656274 -126.20861816 755.88665771 C-123.07051984 757.8318488 -120.55038966 757.84089104 -116.86486816 758.11322021 C-105.58110531 759.10848718 -94.48268133 761.19389469 -83.34118652 763.18084717 C-61.02371134 768.01114441 -61.02371134 768.01114441 -39.92736816 762.30072021 C-36.78283691 762.28900146 -36.78283691 762.28900146 -33.11486816 762.61322021 C-31.3108252 762.76210693 -31.3108252 762.76210693 -29.47033691 762.91400146 C-27.24347065 763.15706625 -25.02181963 763.46567566 -22.81799316 763.86712646 C-19.88066059 764.30772635 -17.43555234 764.24209268 -14.48986816 763.92572021 C-13.16148926 763.79036865 -13.16148926 763.79036865 -11.80627441 763.65228271 C-9.72125106 763.39766657 -7.64197362 763.09445923 -5.56799316 762.76165771 C-1.70087215 762.27204368 1.98959196 762.238578 5.88513184 762.30072021 C10.64662347 762.58289726 10.64662347 762.58289726 15.07263184 761.30072021 C14.74263184 759.32072021 14.41263184 757.34072021 14.07263184 755.30072021 C14.89440918 755.35292725 14.89440918 755.35292725 15.73278809 755.40618896 C22.49233965 755.63700292 28.54795535 754.45650882 35.13513184 753.01556396 C39.00733016 752.23862735 42.81159176 752.05922618 46.76013184 751.92572021 C52.84186939 751.61190507 57.10760331 750.26479609 62.57263184 747.70306396 C67.18508154 745.85499539 71.86416597 744.73429346 76.69763184 743.61322021 C77.56855469 743.41115967 78.43947754 743.20909912 79.33679199 743.00091553 C82.81530286 742.21186664 86.28202078 741.43766028 89.79724121 740.82879639 C96.15470839 739.72043414 96.15470839 739.72043414 101.32263184 735.98822021 C104.83286634 732.95447702 107.97617023 731.43046694 112.37341309 729.98822021 C120.41975347 727.22637956 128.21400463 724.01255936 136.01013184 720.61322021 C137.0633815 720.15492828 137.0633815 720.15492828 138.13790894 719.68737793 C148.53035864 715.13782235 158.04328476 710.20551504 167.07263184 703.30072021 C168.09872559 702.60462646 169.12481934 701.90853271 170.18200684 701.19134521 C174.4957992 698.24701075 178.01458018 695.74176191 180.82263184 691.30072021 C183.98950867 686.51751455 188.71143211 684.52484629 193.78063965 682.17767334 C197.96463733 680.18206533 200.17185956 678.56720186 202.07263184 674.30072021 C202.77933911 671.60817031 202.77933911 671.60817031 203.07263184 669.30072021 C204.08325684 669.36259521 205.09388184 669.42447021 206.13513184 669.48822021 C209.10707101 669.07478513 209.94418906 668.45656781 211.88513184 666.10150146 C213.69271308 663.20856452 215.37990074 660.26203566 217.07263184 657.30072021 C218.72310075 654.90522321 220.40326526 652.53575955 222.10388184 650.17572021 C222.42356934 649.55697021 222.74325684 648.93822021 223.07263184 648.30072021 C222.74263184 647.31072021 222.41263184 646.32072021 222.07263184 645.30072021 C216.51049755 646.3559868 212.24842248 647.32030194 208.88513184 652.11322021 C208.4223584 652.8183374 207.95958496 653.52345459 207.48278809 654.24993896 C203.01320652 660.75002296 195.78433994 664.49246733 189.07263184 668.30072021 C191.67616565 660.62029547 194.67842037 656.38329856 201.07263184 651.30072021 C201.54700684 650.62009521 202.02138184 649.93947021 202.51013184 649.23822021 C204.07263184 647.30072021 204.07263184 647.30072021 206.94763184 645.92572021 C212.07691499 643.25849298 214.6055616 639.14242293 217.44763184 634.30072021 C219.97944417 630.09451443 223.19223197 627.25295528 227.07263184 624.30072021 C226.74263184 622.98072021 226.41263184 621.66072021 226.07263184 620.30072021 C221.15085022 620.73499506 218.61803508 622.99167718 215.07263184 626.30072021 C214.41263184 627.29072021 213.75263184 628.28072021 213.07263184 629.30072021 C210.44763184 629.48822021 210.44763184 629.48822021 208.07263184 629.30072021 C207.72651855 630.25784912 207.72651855 630.25784912 207.37341309 631.23431396 C206.39964504 633.70144959 205.41102011 636.00943414 204.07263184 638.30072021 C201.57263184 639.30072021 201.57263184 639.30072021 199.07263184 639.30072021 C195.99755172 639.58940121 195.19258963 640.16036474 193.14294434 642.55853271 C192.50099121 643.50470459 191.85903809 644.45087646 191.19763184 645.42572021 C186.46218494 652.19441662 186.46218494 652.19441662 183.82263184 655.36322021 C183.38435059 655.89044678 182.94606934 656.41767334 182.49450684 656.96087646 C179.95854257 659.3505351 177.79051734 660.26808906 174.32263184 660.42572021 C173.20888184 660.36384521 173.20888184 660.36384521 172.07263184 660.30072021 C171.74263184 658.32072021 171.41263184 656.34072021 171.07263184 654.30072021 C172.42421387 654.00681396 172.42421387 654.00681396 173.80310059 653.70697021 C177.88765349 651.95017327 179.32651651 649.54439542 181.38513184 645.80072021 C181.73124512 645.2064624 182.0773584 644.61220459 182.43395996 643.99993896 C183.70951973 641.79692541 184.93411167 639.57776054 186.07263184 637.30072021 C187.08325684 636.97072021 188.09388184 636.64072021 189.13513184 636.30072021 C193.77477005 634.42029658 196.04568919 630.94835562 198.97106934 627.02337646 C201.02101091 624.36759714 203.2209585 622.06375963 205.57263184 619.67572021 C209.92915906 614.94620265 212.37281881 609.94908908 215.05529785 604.19158936 C217.58699029 598.90656432 220.66428765 595.00696693 224.76794434 590.79681396 C231.16698668 583.86632574 235.99343884 575.76126865 240.07263184 567.30072021 C240.6823584 566.54919678 241.29208496 565.79767334 241.92028809 565.02337646 C244.3641305 561.93198234 246.32242646 558.69067624 248.19763184 555.23822021 C248.73408325 554.25510864 248.73408325 554.25510864 249.28137207 553.25213623 C251.93603384 548.13690498 252.82814058 543.5423233 253.45544434 537.81243896 C254.36374093 534.11601673 256.40650128 532.84753232 259.39294434 530.69134521 C264.17052618 526.73595188 264.26957539 520.01838535 264.94763184 514.30072021 C265.62719313 508.79978869 266.8046189 505.58276147 270.02575684 501.16790771 C272.35809348 497.00799385 271.55826367 492.04090096 270.32263184 487.61322021 C270.07263184 485.30072021 270.07263184 485.30072021 272.00524902 482.7711792 C274.89163393 478.6028961 274.77444052 474.39858354 274.90075684 469.46087646 C274.93948914 468.50289658 274.97822144 467.54491669 275.01812744 466.5579071 C275.13713131 463.49337114 275.22977674 460.42864738 275.32263184 457.36322021 C275.3991387 455.36901685 275.47725033 453.37487438 275.55700684 451.38079834 C275.94474528 441.1607892 276.14754634 430.94203484 276.18591309 420.71478271 C276.19506744 419.29305504 276.19506744 419.29305504 276.20440674 417.84260559 C276.20087 412.04048738 275.65279985 406.63597596 274.44372559 400.94915771 C273.86639663 396.82885212 274.41241226 392.89827156 274.97888184 388.79681396 C275.32611255 386.04660839 275.32611255 386.04660839 273.07263184 383.30072021 C272.08263184 382.97072021 271.09263184 382.64072021 270.07263184 382.30072021 C270.1770459 381.192771 270.1770459 381.192771 270.28356934 380.06243896 C270.69019317 372.44308283 269.30067646 368.28226474 265.34606934 361.83978271 C263.03541778 357.23265538 264.29035217 353.70712367 265.84216309 348.93353271 C266.16691581 345.22364572 264.74499651 343.60962869 262.69763184 340.55072021 C259.78627408 335.87420854 258.56731222 332.77069246 258.36560059 327.34368896 C258.01718837 324.91409441 257.22191237 323.81665066 255.76013184 321.86322021 C250.58525982 314.34021263 249.480195 303.66180786 248.55700684 294.74993896 C248.48248291 294.03193115 248.40795898 293.31392334 248.33117676 292.57415771 C248.14600229 290.60388293 248.00064172 288.62998358 247.85778809 286.65618896 C246.89005494 282.5204538 245.32675092 280.95332032 242.07263184 278.30072021 C239.89916616 277.43952887 239.89916616 277.43952887 238.07263184 277.30072021 C237.97981934 275.66103271 237.97981934 275.66103271 237.88513184 273.98822021 C237.45940853 270.15739306 237.45940853 270.15739306 234.51013184 268.36322021 C233.70575684 268.01259521 232.90138184 267.66197021 232.07263184 267.30072021 C232.36138184 266.33134521 232.65013184 265.36197021 232.94763184 264.36322021 C233.64580696 259.68355992 231.29391347 257.18122939 228.61560059 253.54681396 C227.19007225 251.47167778 226.39781179 249.8012011 225.63513184 247.42572021 C219.6886935 229.96670068 203.80555956 214.4640656 191.38513184 201.17572021 C187.68673902 197.21732561 184.53958334 193.22698007 181.44763184 188.80072021 C178.04638513 184.10809107 175.62286836 182.24355436 170.23278809 180.39447021 C167.42500722 178.97280902 166.27091445 177.22752828 164.44763184 174.67572021 C159.75378475 168.29810834 153.69449561 164.64749024 147.05480957 160.55291748 C144.8999444 159.19162872 142.80686297 157.75470626 140.70544434 156.31243896 C136.11859121 153.24085499 131.34741285 150.76729463 126.38513184 148.36322021 C124.60238028 147.48992938 122.81982852 146.61623058 121.03747559 145.74212646 C120.18008789 145.32334229 119.3227002 144.90455811 118.43933105 144.4730835 C116.46946422 143.49729429 114.5201115 142.48022623 112.57653809 141.45306396 C87.12115112 128.01033152 58.22543263 119.43356006 30.21862793 113.23919678 C29.28873047 113.02489014 28.35883301 112.8105835 27.40075684 112.58978271 C26.58510254 112.41140869 25.76944824 112.23303467 24.92907715 112.04925537 C24.3164502 111.80223877 23.70382324 111.55522217 23.07263184 111.30072021 C22.74263184 110.31072021 22.41263184 109.32072021 22.07263184 108.30072021 C25.04263184 108.30072021 28.01263184 108.30072021 31.07263184 108.30072021 C31.40263184 107.31072021 31.73263184 106.32072021 32.07263184 105.30072021 C30.90316752 103.67071568 30.90316752 103.67071568 29.07263184 102.30072021 C26.57828566 102.19219568 26.57828566 102.19219568 23.94763184 102.67572021 C22.32694395 102.91530016 20.70215302 103.13134346 19.07263184 103.30072021 C18.74263184 102.97072021 18.41263184 102.64072021 18.07263184 102.30072021 C14.55875388 101.98127676 12.69712797 101.86188509 9.76013184 103.92572021 C6.15415703 105.77063756 4.10038794 105.12458128 0.27966309 104.11712646 C-2.77956441 102.98548302 -5.24315268 101.13086714 -7.92736816 99.30072021 C-10.51392149 98.63328144 -10.51392149 98.63328144 -12.92736816 99.30072021 C-13.54611816 99.96072021 -14.16486816 100.62072021 -14.80236816 101.30072021 C-16.92736816 103.30072021 -16.92736816 103.30072021 -20.23986816 103.67572021 C-23.3519934 103.3592329 -25.82066724 102.70566298 -28.76330566 101.73822021 C-32.80637579 100.92084864 -36.93346226 101.27304 -41.03674316 101.42572021 C-43.92736816 101.30072021 -43.92736816 101.30072021 -46.92736816 99.30072021 C-50.07411117 98.97287689 -50.07411117 98.97287689 -52.30236816 101.36322021 Z M243.07263184 618.30072021 C241.15062022 620.337569 239.23504113 622.37988701 237.32263184 624.42572021 C236.78380371 624.99548584 236.24497559 625.56525146 235.68981934 626.15228271 C229.76890387 631.96751532 229.76890387 631.96751532 227.07263184 639.30072021 C231.3591693 638.80611974 234.2343297 636.35889083 237.07263184 633.30072021 C239.70138634 629.79398249 242.21706299 626.27863297 244.07263184 622.30072021 C243.6974915 620.17273291 243.6974915 620.17273291 243.07263184 618.30072021 Z M-296.92736816 675.30072021 C-296.39443003 679.25334474 -294.61208159 680.89848138 -291.67736816 683.48822021 C-290.90908691 684.1830249 -290.14080566 684.87782959 -289.34924316 685.59368896 C-286.79180733 687.39626874 -285.00462589 687.93515946 -281.92736816 688.30072021 C-282.40174316 687.45509521 -282.87611816 686.60947021 -283.36486816 685.73822021 C-284.9845833 682.17484693 -285.53992959 679.17510596 -285.92736816 675.30072021 C-291.4823074 674.27368274 -291.4823074 674.27368274 -296.92736816 675.30072021 Z M-255.92736816 724.30072021 C-255.36073627 728.26714347 -254.47068811 731.16395895 -251.92736816 734.30072021 C-249.60064962 734.9901183 -247.26669223 735.65538944 -244.92736816 736.30072021 C-243.24087921 737.94732598 -241.57716458 739.61735236 -239.92736816 741.30072021 C-237.73980302 742.98055419 -235.55915702 744.59712278 -233.30236816 746.17572021 C-232.69207764 746.60771729 -232.08178711 747.03971436 -231.45300293 747.48480225 C-226.84187369 750.72395077 -222.13404107 753.78414731 -217.32971191 756.73040771 C-214.92736816 758.30072021 -214.92736816 758.30072021 -212.56408691 760.26947021 C-209.50330665 762.62740464 -206.26950392 764.26966521 -202.80236816 765.92572021 C-201.3861115 766.61790836 -199.97078805 767.31200831 -198.55627441 768.00775146 C-197.81006836 768.37465088 -197.0638623 768.74155029 -196.29504395 769.11956787 C-192.07818117 771.22321627 -187.90899519 773.41686113 -183.73986816 775.61322021 C-182.53789795 776.24381348 -182.53789795 776.24381348 -181.31164551 776.887146 C-178.22134074 778.51717526 -175.18711498 780.13659034 -172.23205566 782.00384521 C-169.58398557 783.49394567 -167.20598297 784.10064414 -164.23986816 784.73822021 C-160.17459594 785.67597626 -156.49624848 786.81192654 -152.67736816 788.48822021 C-148.18050325 790.40193457 -144.78106768 790.66025351 -139.92736816 790.30072021 C-140.50486816 790.09447021 -141.08236816 789.88822021 -141.67736816 789.67572021 C-143.92736816 788.30072021 -143.92736816 788.30072021 -145.72424316 785.40618896 C-148.14917612 781.98806538 -149.66938704 780.97677076 -153.42736816 779.23822021 C-154.01139404 778.96131348 -154.59541992 778.68440674 -155.19714355 778.39910889 C-157.43191412 777.34675661 -159.6790233 776.32375827 -161.92736816 775.30072021 C-166.40894478 773.24343694 -170.88756424 771.17978461 -175.36486816 769.11322021 C-175.96741425 768.8354776 -176.56996033 768.55773499 -177.19076538 768.27157593 C-202.97208564 756.37082206 -226.61445466 743.49424631 -247.13049316 723.59368896 C-250.54136979 721.13934078 -252.67574248 722.13296976 -255.92736816 724.30072021 Z " fill="#FF0202" transform="translate(493.9273681640625,3.69927978515625)"/>
<path d="M0 0 C1.32 0.33 2.64 0.66 4 1 C4.020625 1.969375 4.04125 2.93875 4.0625 3.9375 C4.54184699 7.67490853 6.08162688 9.47402302 8.5625 12.25 C12.1490934 16.59515422 12.818585 19.57394361 12.43359375 25.14453125 C11.71586926 29.87116734 10.89047877 34.58888286 9 39 C8.01 39.66 7.02 40.32 6 41 C5.64048769 43.70812959 5.4418856 46.22146683 5.375 48.9375 C5.10051929 56.69844214 5.10051929 56.69844214 4 60 C4.00867179 63.49039408 4.13070528 66.9690597 4.2578125 70.45703125 C3.97614292 74.32785406 2.94413501 76.67664879 1 80 C0.113125 79.79375 -0.77375 79.5875 -1.6875 79.375 C-5.29247581 78.96688953 -6.8912477 79.18656116 -10 81 C-10.309375 81.680625 -10.61875 82.36125 -10.9375 83.0625 C-11.288125 83.701875 -11.63875 84.34125 -12 85 C-13.9914056 85.38133299 -15.99279077 85.71325582 -18 86 C-18.45375 86.515625 -18.9075 87.03125 -19.375 87.5625 C-21.70365464 89.62246372 -23.9233409 89.40458385 -26.92578125 89.3046875 C-29.98453317 88.85537931 -32.37299673 87.57620196 -35 86 C-34.649375 86.5775 -34.29875 87.155 -33.9375 87.75 C-33 90 -33 90 -33.0625 91.9375 C-34.42394367 94.93267606 -36.63288582 96.74560555 -39 99 C-39.474375 99.763125 -39.94875 100.52625 -40.4375 101.3125 C-42 103 -42 103 -45 103.5 C-48 103 -48 103 -49.70703125 101.296875 C-51.31765607 98.43570462 -51.15290543 96.96552845 -50.6875 93.75 C-50.56761719 92.85796875 -50.44773437 91.9659375 -50.32421875 91.046875 C-50.21722656 90.37140625 -50.11023438 89.6959375 -50 89 C-52.97 89 -55.94 89 -59 89 C-58.33937474 92.88235842 -58.33937474 92.88235842 -56.375 94.9375 C-55 97 -55 97 -55.1875 99.5625 C-56 102 -56 102 -58 105 C-59.98828125 105.51953125 -59.98828125 105.51953125 -62.3125 105.8125 C-65.93998435 106.48533984 -67.71784583 107.24808239 -70.0625 110.125 C-70.701875 111.07375 -71.34125 112.0225 -72 113 C-73.875 112.6875 -73.875 112.6875 -76 112 C-78.36086122 108.45870816 -78.57269578 107.17249782 -78 103 C-75.9375 99.6875 -75.9375 99.6875 -73 97 C-69.1875 96.125 -69.1875 96.125 -66 96 C-65.505 94.515 -65.505 94.515 -65 93 C-65.59167969 93.20496094 -66.18335938 93.40992188 -66.79296875 93.62109375 C-73.5413702 95.92193535 -73.5413702 95.92193535 -76.9375 96.5 C-79.38780799 96.84727614 -79.38780799 96.84727614 -81 100 C-82.9453125 100.29296875 -82.9453125 100.29296875 -85.125 100.1875 C-86.40375 100.125625 -87.6825 100.06375 -89 100 C-89.33 100.66 -89.66 101.32 -90 102 C-89.2575 102.20625 -88.515 102.4125 -87.75 102.625 C-84.10313458 104.44843271 -82.83759219 106.39549224 -81 110 C-81.07264297 113.05100463 -81.51622219 114.43559255 -83.5 116.75 C-85.18294849 119.27442273 -85.20627875 120.4074909 -85.375 123.375 C-85.80304053 128.45273567 -87.13976549 130.65446343 -91 134 C-94.40659307 134.62570077 -96.20738457 134.33373281 -99.375 133 C-101.56990068 130.29858378 -101.40019435 128.3302617 -101.3359375 124.9375 C-101 123 -101 123 -99 120 C-98.83286431 117.37468476 -98.83286431 117.37468476 -99 115 C-100.7015625 114.5359375 -100.7015625 114.5359375 -102.4375 114.0625 C-106 113 -106 113 -107 112 C-106.9375 108.6875 -106.9375 108.6875 -106 105 C-103.1732953 102.62299832 -100.73704237 101.25126444 -97.25 100.0625 C-96.5075 99.711875 -95.765 99.36125 -95 99 C-94.73960937 98.22140625 -94.47921875 97.4428125 -94.2109375 96.640625 C-92.59793427 93.12323731 -90.78775674 92.42843793 -87.375 90.6875 C-82.24985761 87.88468776 -78.45548892 84.89861448 -74.5234375 80.6015625 C-71.56621757 77.49269026 -68.70307873 77.75849767 -64.5625 77.5 C-61.10551422 77.28369698 -58.28953289 77.09651096 -55 76 C-53.31306711 75.95625458 -51.62453169 75.96024668 -49.9375 76 C-46.32672868 76.15626873 -46.32672868 76.15626873 -43 75 C-42.5359375 73.3603125 -42.5359375 73.3603125 -42.0625 71.6875 C-41 68 -41 68 -39.4375 66 C-37.70089927 63.92168415 -37.70089927 63.92168415 -37.5625 60.4375 C-37 57 -37 57 -34.9375 55.0625 C-34.298125 54.711875 -33.65875 54.36125 -33 54 C-32 55 -32 55 -31.9375 57.5625 C-31.958125 58.366875 -31.97875 59.17125 -32 60 C-23.44326521 56.57730609 -18.56558801 53.05594697 -14 45 C-13.34 44.01 -12.68 43.02 -12 42 C-11.67 40.845 -11.34 39.69 -11 38.5 C-10 35 -10 35 -8 32 C-7.71975717 29.79068687 -7.71975717 29.79068687 -7.8125 27.375 C-7.83183594 26.0446875 -7.83183594 26.0446875 -7.8515625 24.6875 C-7.98871508 22.20431642 -8.30394464 19.8297543 -8.6875 17.375 C-9.25057147 12.78066319 -8.54881119 8.91976266 -6 5 C-3.375 3.6875 -3.375 3.6875 -1 3 C-0.67 2.01 -0.34 1.02 0 0 Z " fill="#FF190D" transform="translate(477,292)"/>
<path d="M0 0 C4.87122644 2.65358639 8.67229827 7.00117052 10.5703125 12.25 C12.20461204 22.26443121 12.08466664 32.15799159 6.8046875 41.0390625 C0.44276059 49.42402893 -7.77138318 50.63348695 -17.66015625 52.0546875 C-18.78292969 52.20164062 -19.90570313 52.34859375 -21.0625 52.5 C-21.87170795 57.55443738 -22.07341283 62.17565102 -21.8046875 67.265625 C-22.0625 69.5 -22.0625 69.5 -23.32421875 71.2421875 C-26.31931669 73.4094269 -29.43535874 73.58740099 -33.0625 73.5 C-35.625 72.625 -35.625 72.625 -37.0625 70.5 C-37.00390625 68.67529297 -37.00390625 68.67529297 -36.6875 66.4921875 C-34.9690145 53.19814293 -34.97048501 39.63591555 -34.9375 26.25 C-34.93290771 25.22777344 -34.92831543 24.20554687 -34.92358398 23.15234375 C-34.93341791 18.35024077 -35.13327422 13.7709735 -35.8203125 9.015625 C-36.17773272 5.70293363 -36.26714856 4.85430113 -34.55078125 1.8828125 C-31.24503705 0.04571133 -29.01048229 0.17129023 -25.25 0.375 C-19.60046133 0.61990559 -19.60046133 0.61990559 -14.125 -0.5 C-9.03983539 -2.16046191 -4.89839471 -2.10463347 0 0 Z M-20.0625 9.5 C-23.97779165 14.99182384 -23.57808076 19.97166319 -23.5625 26.5 C-23.59085937 27.58023437 -23.61921875 28.66046875 -23.6484375 29.7734375 C-23.68834347 36.16572849 -23.68834347 36.16572849 -20.78125 41.71875 C-16.94182947 44.23423242 -14.4862435 44.29123868 -10.0625 43.5 C-6.33749357 42.14545221 -5.11886596 40.57617022 -2.75 37.375 C-0.75323254 32.99841172 -0.63436724 28.67258298 -0.5625 23.9375 C-0.54405029 23.21739746 -0.52560059 22.49729492 -0.5065918 21.75537109 C-0.56989052 16.27658485 -1.97913623 13.02688613 -5.0625 8.5 C-9.91026268 4.78338195 -15.50297668 5.92631956 -20.0625 9.5 Z " fill="#202020" transform="translate(376.0625,473.5)"/>
<path d="M0 0 C1.4379744 -0.00642769 1.4379744 -0.00642769 2.90499878 -0.01298523 C4.92379976 -0.01870966 6.94262137 -0.01924276 8.96142578 -0.01489258 C12.05146204 -0.01172206 15.14054996 -0.03525188 18.23046875 -0.06054688 C20.19531129 -0.06281898 22.16015641 -0.06352378 24.125 -0.0625 C25.04797882 -0.07170975 25.97095764 -0.08091949 26.92190552 -0.09040833 C33.29990902 -0.04428062 33.29990902 -0.04428062 36.48779297 1.70239258 C38.22334131 3.62630639 38.77267025 4.7099966 38.9296875 7.30078125 C38.29996577 8.65195584 37.63659717 9.98834042 36.9296875 11.30078125 C35.37507813 11.28337891 35.37507813 11.28337891 33.7890625 11.265625 C32.41927264 11.25624288 31.04948082 11.24714313 29.6796875 11.23828125 C28.99777344 11.22990234 28.31585938 11.22152344 27.61328125 11.21289062 C24.23626196 11.19649733 21.15677111 11.24449357 17.9296875 12.30078125 C16.76749056 16.5047126 16.66552334 20.64701648 16.54296875 24.984375 C16.50468208 26.26140038 16.50468208 26.26140038 16.46562195 27.56422424 C16.4136535 29.36883711 16.36422182 31.17352455 16.31713867 32.97827148 C16.24329232 35.69759712 16.15226869 38.41599253 16.06054688 41.13476562 C15.80356901 49.96015289 15.80903543 58.18381682 17.66430664 66.85644531 C17.9296875 69.30078125 17.9296875 69.30078125 16.0546875 72.61328125 C12.12874292 74.73329132 9.28883088 75.36868384 4.9296875 74.30078125 C1.8046875 72.30078125 1.8046875 72.30078125 -0.0703125 69.30078125 C0.5546875 65.67578125 0.5546875 65.67578125 1.24511719 63.56103516 C3.82541122 55.0416478 3.08741551 45.42608127 3.06005859 36.61083984 C3.0546593 34.53996588 3.06005839 32.46930526 3.06640625 30.3984375 C3.06574595 29.05859328 3.06446579 27.71874919 3.0625 26.37890625 C3.06137207 25.1868457 3.06024414 23.99478516 3.05908203 22.76660156 C2.92655008 19.21674584 2.49334992 15.80589949 1.9296875 12.30078125 C-4.64880742 11.34583844 -10.48847888 11.40763055 -17.0703125 12.30078125 C-18.2578125 10.11328125 -18.2578125 10.11328125 -19.0703125 7.30078125 C-18.0703125 4.61328125 -18.0703125 4.61328125 -16.0703125 2.30078125 C-10.77942621 -0.08586292 -5.68998252 -0.0056434 0 0 Z " fill="#1D1D1D" transform="translate(465.0703125,450.69921875)"/>
<path d="M0 0 C4.50391478 3.76100101 5.83673991 7.64322212 6.515625 13.265625 C6.7810681 18.36964947 6.90769435 23.47876512 7.03320312 28.58789062 C7.06736328 29.62751953 7.10152344 30.66714844 7.13671875 31.73828125 C7.1617749 32.67937744 7.18683105 33.62047363 7.21264648 34.59008789 C7.53687772 37.45330317 8.3890519 39.62789675 9.515625 42.265625 C9.765625 44.953125 9.765625 44.953125 9.515625 47.265625 C7.515625 49.265625 7.515625 49.265625 5.52734375 49.49609375 C4.76035156 49.48191406 3.99335938 49.46773437 3.203125 49.453125 C2.44386719 49.44667969 1.68460937 49.44023438 0.90234375 49.43359375 C-1.484375 49.265625 -1.484375 49.265625 -3.94921875 48.66015625 C-7.01607377 48.18287989 -8.81060557 48.77393712 -11.734375 49.765625 C-18.50994021 51.74449129 -23.50628703 51.75466899 -29.859375 48.578125 C-34.06195509 44.87585206 -35.30609215 41.87017063 -35.921875 36.328125 C-35.70593128 31.97602852 -34.40270396 28.51884416 -31.484375 25.265625 C-25.44280687 20.38902292 -17.92873742 18.84001838 -10.546875 17.0625 C-7.6292056 16.57920794 -7.6292056 16.57920794 -6.484375 15.265625 C-6.58739693 10.54133032 -6.58739693 10.54133032 -9.046875 6.765625 C-14.06622265 5.73601523 -18.21155659 6.61673718 -22.671875 8.890625 C-25.484375 10.265625 -25.484375 10.265625 -28.234375 10.203125 C-30.484375 9.265625 -30.484375 9.265625 -31.796875 7.203125 C-32.02375 6.56375 -32.250625 5.924375 -32.484375 5.265625 C-25.70363147 -4.76987543 -10.13920125 -6.25985468 0 0 Z M-21.484375 28.265625 C-23.98469154 32.01609982 -24.02041054 33.82418766 -23.484375 38.265625 C-21.7144927 41.4522753 -21.7144927 41.4522753 -18.484375 43.265625 C-15.26088673 43.64418412 -12.55043001 43.32584963 -9.484375 42.265625 C-6.85484119 39.70182954 -4.65277189 37.14540422 -4.31640625 33.390625 C-4.30996094 32.689375 -4.30351562 31.988125 -4.296875 31.265625 C-4.28269531 30.564375 -4.26851563 29.863125 -4.25390625 29.140625 C-4.31925177 27.02037562 -4.31925177 27.02037562 -6.484375 25.265625 C-12.07678179 24.40439436 -16.71302903 25.12351912 -21.484375 28.265625 Z " fill="#212121" transform="translate(317.484375,474.734375)"/>
<path d="M0 0 C3.86902568 2.29542942 6.49531511 4.85248775 8.28125 9.0546875 C9.09953182 12.5098163 9.43233648 15.78310625 9.52734375 19.328125 C9.56021484 20.318125 9.59308594 21.308125 9.62695312 22.328125 C9.6879167 24.38791543 9.74523687 26.44781707 9.79882812 28.5078125 C9.98991009 34.06000558 10.52934592 38.78501587 12.28125 44.0546875 C12.53125 46.8671875 12.53125 46.8671875 12.28125 49.0546875 C10.28125 51.0546875 10.28125 51.0546875 8.328125 51.28515625 C7.57015625 51.27097656 6.8121875 51.25679687 6.03125 51.2421875 C5.22042969 51.22929688 4.40960938 51.21640625 3.57421875 51.203125 C1.28125 51.0546875 1.28125 51.0546875 -1.65625 50.3671875 C-4.92319367 50.0338259 -6.46756483 50.51303454 -9.53125 51.5546875 C-16.03100451 53.67566002 -20.96805469 53.43003516 -27.09375 50.3671875 C-31.10495741 46.83350478 -32.52578671 43.85567824 -33.09375 38.5546875 C-32.51781888 33.17933038 -30.85668635 30.21971758 -27.09375 26.3671875 C-23.3490886 23.48029337 -19.21947685 22.3160377 -14.71875 21.0546875 C-12.88458688 20.51583732 -11.05124043 19.97419894 -9.21875 19.4296875 C-8.3834375 19.18992187 -7.548125 18.95015625 -6.6875 18.703125 C-4.73915846 18.22523226 -4.73915846 18.22523226 -3.71875 17.0546875 C-3.24020592 12.77359168 -3.24020592 12.77359168 -5.21875 9.1171875 C-8.85485215 7.57184408 -11.99890218 8.10731053 -15.71875 9.0546875 C-16.9609066 9.56586306 -18.19135623 10.1067245 -19.40625 10.6796875 C-22.88430207 12.12340723 -24.23008483 12.28598109 -27.71875 11.0546875 C-28.71875 10.0546875 -28.71875 10.0546875 -29.09375 7.7421875 C-28.71875 5.0546875 -28.71875 5.0546875 -26.53125 2.8671875 C-19.0002073 -1.98615113 -8.54020513 -2.96943914 0 0 Z M-18.71875 30.0546875 C-20.50154682 32.40473785 -20.71988938 34.06233759 -21.15625 36.9921875 C-20.91969414 40.20487232 -20.91969414 40.20487232 -18.78125 42.9921875 C-15.02404637 45.52254913 -13.15645058 45.46664018 -8.80859375 44.70703125 C-5.90606643 43.8010087 -4.46083391 42.5226397 -2.71875 40.0546875 C-1.41109522 36.13172317 -1.5216083 33.19466317 -1.71875 29.0546875 C-4.10245909 26.67097841 -4.7124099 26.75880148 -7.96875 26.7421875 C-12.21627953 26.84478483 -15.14719077 27.61557388 -18.71875 30.0546875 Z " fill="#212121" transform="translate(428.71875,472.9453125)"/>
<path d="M0 0 C6.40013378 3.67187163 9.9677848 8.12547101 12.0546875 15.26171875 C13.83436338 24.42020463 13.23859008 33.6754695 8.5625 41.875 C3.77825657 47.54137075 -2.00242921 51.42012094 -9.484375 52.1875 C-16.30397573 52.43891385 -21.88669895 52.09305922 -27.4375 47.875 C-34.63320168 40.48481989 -35.82295662 32.19936516 -35.7109375 22.296875 C-35.06801169 14.25111769 -32.38322454 7.62115956 -26.2734375 2.24609375 C-18.47347497 -3.57898465 -8.7463018 -4.04679635 0 0 Z M-21.4375 10.875 C-25.13059221 17.82916232 -25.54667401 25.86485344 -23.86328125 33.46875 C-22.66371419 37.37845005 -21.6505245 40.20937967 -18.4375 42.875 C-13.94480856 44.37256381 -10.11239392 44.56018388 -5.6875 42.75 C-2.03165707 39.70346422 -0.66603297 36.18331291 0.14453125 31.54296875 C0.985138 19.62610865 0.985138 19.62610865 -3.4375 8.875 C-6.23803263 6.07446737 -7.12957832 5.90579217 -11.1875 5.5 C-15.75853221 5.59125473 -18.69393174 7.22545593 -21.4375 10.875 Z " fill="#202020" transform="translate(537.4375,474.125)"/>
<path d="M0 0 C3.00594119 -0.33399347 5.1025013 -0.53437476 8 0 C10.97637723 2.59232855 11.38345657 5.21314311 12 9 C12.1101041 11.07118431 12.17699642 13.14491892 12.2109375 15.21875 C12.23929688 16.39824219 12.26765625 17.57773437 12.296875 18.79296875 C12.34895512 21.26417068 12.39322728 23.73554951 12.4296875 26.20703125 C12.460625 27.38652344 12.4915625 28.56601562 12.5234375 29.78125 C12.54325684 30.85439453 12.56307617 31.92753906 12.58349609 33.03320312 C13.05283274 36.3763326 14.01341225 38.29284093 16 41 C19.48647302 42.74323651 22.90334317 42.30212642 26.58764648 41.28710938 C29.14041902 40.21357524 29.14041902 40.21357524 30.12915039 37.87304688 C32.27073129 29.20789336 32.434536 20.85891418 32.43945312 11.96875 C32.45814453 10.855 32.47683594 9.74125 32.49609375 8.59375 C32.49794678 7.59021484 32.4997998 6.58667969 32.50170898 5.55273438 C33 3 33 3 34.86743164 1.13867188 C37 0 37 0 39.625 0.1875 C42 1 42 1 44 3 C45.19699794 6.40143706 45.18531092 9.80295797 45.28125 13.3828125 C45.33732422 15.25839844 45.33732422 15.25839844 45.39453125 17.171875 C45.44673828 19.12867188 45.44673828 19.12867188 45.5 21.125 C45.56967831 23.69019418 45.64253561 26.2553042 45.71875 28.8203125 C45.77289062 30.65770996 45.77289062 30.65770996 45.828125 32.53222656 C46.02047306 36.4130672 46.47002306 40.20847987 47.09179688 44.04248047 C47 46 47 46 45.75195312 47.75048828 C42.80890941 49.84949856 39.45231271 49.29246111 36 49 C34.783125 48.79375 33.56625 48.5875 32.3125 48.375 C28.64233387 47.95950949 27.31094046 48.54641638 24 50 C17.63286407 51.37954612 12.85279203 51.02692107 7 48 C1.41046194 43.24294633 0.64329412 38.12164433 0 31 C-0.28649129 26.26701925 -0.50089449 21.53193174 -0.65917969 16.79296875 C-0.79038386 12.94070611 -0.94078207 9.31594717 -1.65234375 5.51953125 C-2 3 -2 3 0 0 Z " fill="#1F1F1F" transform="translate(562,474)"/>
<path d="M0 0 C3 1.125 3 1.125 5 3 C6.18667376 6.56002127 5.97931253 9.17367041 5.53515625 12.90234375 C4.83450001 18.90171277 4.73114706 24.90410901 4.5625 30.9375 C3.34946591 66.16085806 3.34946591 66.16085806 -4.51953125 74.63671875 C-9.12627257 78.7069788 -12.8365892 80.28941963 -18.9375 80.3125 C-19.95714844 80.32925781 -20.97679687 80.34601563 -22.02734375 80.36328125 C-25.42224115 79.94839891 -27.27539638 79.03862186 -30 77 C-31.3125 74.3125 -31.3125 74.3125 -32 72 C-30.22578467 69.6086663 -28.83399042 68.17750989 -25.87109375 67.546875 C-24.32293186 67.39384417 -22.77167043 67.26885011 -21.21875 67.17578125 C-18.02328157 66.95448453 -18.02328157 66.95448453 -15 66 C-10.34622385 55.86217554 -9.49918044 45.44934675 -9.5625 34.4375 C-9.54251953 33.20064453 -9.52253906 31.96378906 -9.50195312 30.68945312 C-9.50571336 23.57885251 -10.25997848 17.91667523 -13.14038086 11.38696289 C-14.09959023 8.72346105 -14.2937424 6.80977372 -14 4 C-10.06303143 -0.69896249 -5.72171716 -0.8395998 0 0 Z " fill="#1D1D1D" transform="translate(266,451)"/>
<path d="M0 0 C4.2298448 0.19327938 6.20303059 1.83152571 9.05664062 4.8515625 C9.51232422 5.35429687 9.96800781 5.85703125 10.4375 6.375 C14.49916629 10.8248712 18.31339885 14.57722464 24.5546875 15.29296875 C25.32039063 15.25816406 26.08609375 15.22335937 26.875 15.1875 C27.65617187 15.16042969 28.43734375 15.13335937 29.2421875 15.10546875 C30.11230469 15.05326172 30.11230469 15.05326172 31 15 C32.17076699 18.98060777 33.25749403 22.91621717 34 27 C30.9489836 29.03401093 29.5800193 29.33115525 26.0625 29.8125 C22.46755436 30.48230064 21.25502247 30.76410421 18.5 33.3125 C17.09635112 35.82737091 16.04188957 38.3208554 15 41 C14.01 41.495 14.01 41.495 13 42 C12.195625 41.195625 11.39125 40.39125 10.5625 39.5625 C6.69275667 36.3498829 2.94608988 35.81174052 -2 36 C-4.47990664 36.46327926 -6.61532182 37.13745683 -9 38 C-8.505 38.86625 -8.505 38.86625 -8 39.75 C-7 42 -7 42 -7 46 C-10.465 46.495 -10.465 46.495 -14 47 C-17.01998183 40.83923706 -17.01998183 40.83923706 -16.9375 37.375 C-15.77682808 34.43463113 -13.99736952 32.4342941 -12 30 C-11.22166466 27.81785432 -11.22166466 27.81785432 -11 26 C-10.071875 25.979375 -9.14375 25.95875 -8.1875 25.9375 C-4.71907543 25.32325358 -4.71907543 25.32325358 -3.33984375 21.99609375 C-1.68721044 17.74654273 -1.48407155 13.64367865 -1.375 9.125 C-1.10683391 1.10683391 -1.10683391 1.10683391 0 0 Z " fill="#FF1B0F" transform="translate(483,244)"/>
<path d="M0 0 C2.4375 2 2.4375 2 4 4 C3.375 6.38671875 3.375 6.38671875 2 9 C-0.75 10.14453125 -0.75 10.14453125 -4 10.8125 C-5.0725 11.04582031 -6.145 11.27914063 -7.25 11.51953125 C-10 12 -10 12 -12 12 C-15.7852705 21.77861545 -15.70672948 31.33684802 -14.25 41.625 C-13.76534206 45.66824223 -13.76534206 45.66824223 -15.8125 48.5625 C-19.45019515 50.95298539 -21.61382505 51.350894 -26 51 C-28.18676758 49.83227539 -28.18676758 49.83227539 -30 48 C-30.34643555 45.46655273 -30.34643555 45.46655273 -30.13671875 42.43359375 C-30.07363525 41.315896 -30.01055176 40.19819824 -29.94555664 39.04663086 C-29.86039795 37.85561768 -29.77523926 36.66460449 -29.6875 35.4375 C-29.1643167 26.27110881 -28.91825959 17.35456774 -29.77026367 8.20678711 C-29.91669814 6.47568523 -29.96803086 4.73699013 -30 3 C-28 1 -28 1 -24.8125 0.75 C-21 1 -21 1 -17.5 2.1875 C-11.29583644 3.62775226 -6.62627678 -0.87516863 0 0 Z " fill="#1E1E1E" transform="translate(652,474)"/>
<path d="M0 0 C4.22498856 3.8226087 7.27625457 7.93899996 7.86328125 13.72265625 C8.05108855 20.59244946 7.37908359 26.47875571 3.625 32.375 C-0.17599424 36.26357475 -4.11894799 37.6700682 -9.5 37.9375 C-14.12953433 37.67478103 -16.87613548 36.54063932 -20.375 33.375 C-25.5954203 26.46147041 -25.953533 20.81729637 -25.375 12.375 C-24.17261973 6.13892603 -21.55205497 2.93422529 -16.375 -0.625 C-10.79259548 -2.48580151 -5.32368031 -2.56325348 0 0 Z M-16.04296875 5.76953125 C-19.58338503 10.0367192 -19.55844174 15.24067285 -19.25 20.5 C-18.65772844 25.13113548 -17.37949421 27.82423411 -14.375 31.375 C-11.52175563 32.80162219 -9.54045451 32.68533868 -6.375 32.375 C-3.17575223 30.48453541 -1.69419409 29.02858789 -0.0625 25.6875 C1.40297219 18.62658854 1.39181278 11.74270731 -2.375 5.375 C-7.30197341 1.33235515 -11.25881583 1.44562596 -16.04296875 5.76953125 Z " fill="#2B2B2B" transform="translate(394.375,575.625)"/>
<path d="M0 0 C5.73876953 -0.20214844 5.73876953 -0.20214844 8.08984375 1.6171875 C8.69957031 2.36226562 9.30929687 3.10734375 9.9375 3.875 C10.60910156 4.68582031 11.28070312 5.49664063 11.97265625 6.33203125 C14.63923064 9.84122259 17.14129087 13.44146069 19.5546875 17.12890625 C20.03164063 17.74636719 20.50859375 18.36382813 21 19 C21.66 19 22.32 19 23 19 C24.17956992 15.46129023 24.06164767 12.6633313 24 8.9375 C23.88911089 2.22177822 23.88911089 2.22177822 25 0 C27.475 0.495 27.475 0.495 30 1 C30.97165075 4.93596249 30.9988796 8.32483213 30.6953125 12.359375 C30.60636719 13.55691406 30.51742187 14.75445313 30.42578125 15.98828125 C30.32652344 17.22964844 30.22726562 18.47101562 30.125 19.75 C30.03347656 21.00683594 29.94195313 22.26367188 29.84765625 23.55859375 C29.13318757 32.86681243 29.13318757 32.86681243 28 34 C25.63916016 34.32006836 25.63916016 34.32006836 23 34 C21.28662109 32.27172852 21.28662109 32.27172852 19.7734375 29.87890625 C19.2165625 29.02619141 18.6596875 28.17347656 18.0859375 27.29492188 C17.23902344 25.94237305 17.23902344 25.94237305 16.375 24.5625 C15.24407511 22.78842526 14.10635971 21.01865559 12.9609375 19.25390625 C12.46384277 18.46314697 11.96674805 17.6723877 11.45458984 16.85766602 C10.0481246 14.70938244 10.0481246 14.70938244 7 14 C6.83012319 15.87471188 6.66425224 17.74978695 6.5 19.625 C6.4071875 20.66914062 6.314375 21.71328125 6.21875 22.7890625 C5.94795593 25.99797798 5.94795593 25.99797798 6.09375 29.2109375 C6 32 6 32 4 35 C2.68 35 1.36 35 0 35 C-1.0132933 30.88882685 -1.04062543 27.17188615 -0.87890625 22.94921875 C-0.85529526 22.29041214 -0.83168427 21.63160553 -0.80735779 20.95283508 C-0.73124327 18.86414178 -0.64699771 16.77586926 -0.5625 14.6875 C-0.50922687 13.26499403 -0.45648689 11.84246799 -0.40429688 10.41992188 C-0.27570006 6.94636091 -0.13981289 3.47312966 0 0 Z " fill="#272727" transform="translate(618,576)"/>
<path d="M0 0 C1.21171875 -0.01675781 2.4234375 -0.03351562 3.671875 -0.05078125 C8.56038721 0.4455415 11.96085426 1.81542753 15.1875 5.5625 C16.60992639 9.24407417 16.21612347 11.51701496 15.25 15.3125 C14.734375 15.9725 14.21875 16.6325 13.6875 17.3125 C11.43885149 20.44105445 11.74750549 22.54379114 12.25 26.3125 C13.45013115 28.51072001 14.7671446 30.50104282 16.25390625 32.515625 C16.58261719 33.10859375 16.91132813 33.7015625 17.25 34.3125 C16.92 35.3025 16.59 36.2925 16.25 37.3125 C12.62942004 37.06520995 11.47694014 36.56637196 9.01171875 33.80859375 C8.32722656 32.79925781 7.64273437 31.78992188 6.9375 30.75 C6.24011719 29.73808594 5.54273438 28.72617187 4.82421875 27.68359375 C4.30472656 26.90113281 3.78523438 26.11867188 3.25 25.3125 C1.93 25.6425 0.61 25.9725 -0.75 26.3125 C-0.78738281 26.92738281 -0.82476562 27.54226563 -0.86328125 28.17578125 C-0.92902344 28.98402344 -0.99476563 29.79226563 -1.0625 30.625 C-1.12050781 31.42550781 -1.17851562 32.22601562 -1.23828125 33.05078125 C-1.83847581 35.70354956 -2.58485593 36.6992554 -4.75 38.3125 C-6.9375 38 -6.9375 38 -8.75 37.3125 C-9.9832258 31.01054264 -9.73879938 24.96999033 -9.50805664 18.57958984 C-9.43722172 16.55454461 -9.38320243 14.5294845 -9.33007812 12.50390625 C-9.28689453 11.22902344 -9.24371094 9.95414063 -9.19921875 8.640625 C-9.16143311 7.4743457 -9.12364746 6.30806641 -9.0847168 5.10644531 C-8.39859589 -0.62073753 -4.95453445 0.01567891 0 0 Z M-1.48046875 5.52734375 C-3.08871658 7.78878762 -3.12146398 9.12183555 -3.0625 11.875 C-3.05863281 12.66003906 -3.05476563 13.44507813 -3.05078125 14.25390625 C-2.92703023 16.53376834 -2.92703023 16.53376834 -0.75 18.3125 C2.91254638 18.1793165 5.35984607 18.03575007 8.25 15.6875 C9.71635207 12.20491384 9.24773361 9.90434098 8.25 6.3125 C5.29935734 3.97233513 1.7966158 3.22672683 -1.48046875 5.52734375 Z " fill="#2B2B2B" transform="translate(418.75,573.6875)"/>
<path d="M0 0 C0.33 0.99 0.66 1.98 1 3 C3.97 3 6.94 3 10 3 C10.33 3.66 10.66 4.32 11 5 C9.02 5 7.04 5 5 5 C4.67 5.66 4.34 6.32 4 7 C4.7425 7.20625 5.485 7.4125 6.25 7.625 C9.89686542 9.44843271 11.16240781 11.39549224 13 15 C12.92735703 18.05100463 12.48377781 19.43559255 10.5 21.75 C8.81705151 24.27442273 8.79372125 25.4074909 8.625 28.375 C8.19695947 33.45273567 6.86023451 35.65446343 3 39 C-0.40659307 39.62570077 -2.20738457 39.33373281 -5.375 38 C-7.56990068 35.29858378 -7.40019435 33.3302617 -7.3359375 29.9375 C-7 28 -7 28 -5 25 C-4.83286431 22.37468476 -4.83286431 22.37468476 -5 20 C-6.134375 19.690625 -7.26875 19.38125 -8.4375 19.0625 C-12 18 -12 18 -13 17 C-12.9375 13.6875 -12.9375 13.6875 -12 10 C-9.15746239 7.60968428 -6.67675515 6.24062405 -3.1875 5 C-0.79831899 4.2167911 -0.79831899 4.2167911 -0.1875 1.875 C-0.125625 1.25625 -0.06375 0.6375 0 0 Z " fill="#FF271C" transform="translate(383,387)"/>
<path d="M0 0 C3.125 -0.1875 3.125 -0.1875 6 0 C9.27697194 6.23657949 11.84944866 12.56820194 14.25 19.1875 C14.61351562 20.15880859 14.97703125 21.13011719 15.3515625 22.13085938 C15.69445312 23.07123047 16.03734375 24.01160156 16.390625 24.98046875 C16.70032227 25.82504639 17.01001953 26.66962402 17.32910156 27.53979492 C18.04181816 30.15334846 18.19554448 32.30365236 18 35 C17 36 17 36 14.4375 36.0625 C13.633125 36.041875 12.82875 36.02125 12 36 C11.73445312 35.43410156 11.46890625 34.86820313 11.1953125 34.28515625 C10.84210937 33.55167969 10.48890625 32.81820312 10.125 32.0625 C9.77695312 31.33160156 9.42890625 30.60070312 9.0703125 29.84765625 C8.1315023 27.83667541 8.1315023 27.83667541 6 27 C4.29297265 26.93003986 2.58331997 26.91559846 0.875 26.9375 C-0.03507813 26.94652344 -0.94515625 26.95554687 -1.8828125 26.96484375 C-2.93082031 26.98224609 -2.93082031 26.98224609 -4 27 C-4.28875 27.928125 -4.5775 28.85625 -4.875 29.8125 C-6 33 -6 33 -8 36 C-9.32 35.67 -10.64 35.34 -12 35 C-12.34898138 29.89218168 -11.12644381 25.92153994 -9.25 21.25 C-8.97704102 20.54915283 -8.70408203 19.84830566 -8.42285156 19.1262207 C-7.87626007 17.7270688 -7.32524995 16.3296339 -6.76953125 14.93408203 C-6.09564506 13.2403871 -5.43715874 11.54058148 -4.78125 9.83984375 C-3.3911442 6.26453377 -2.13745622 3.20618433 0 0 Z M2 10 C-0.4324572 12.4324572 -0.97767509 13.71535734 -1.25 17.1875 C-1.31189416 19.90201339 -1.31189416 19.90201339 0 21 C2.5 21.16666667 2.5 21.16666667 5 21 C6.31651338 19.90298816 6.31651338 19.90298816 6.1875 17.1875 C6.00782439 14.13301456 5.57664404 12.56204656 4 10 C3.34 10 2.68 10 2 10 Z " fill="#292929" transform="translate(592,575)"/>
<path d="M0 0 C0.75732422 0.00644531 1.51464844 0.01289062 2.29492188 0.01953125 C3.08060547 0.03628906 3.86628906 0.05304687 4.67578125 0.0703125 C5.47306641 0.07933594 6.27035156 0.08835937 7.09179688 0.09765625 C9.05742025 0.12119665 11.022889 0.15706703 12.98828125 0.1953125 C13.64828125 1.5153125 14.30828125 2.8353125 14.98828125 4.1953125 C13.00820071 6.17539304 9.12061279 5.50750257 6.43359375 5.62109375 C3.85496066 6.00011073 3.85496066 6.00011073 2.1171875 8.06640625 C0.65058714 10.23238313 0.65058714 10.23238313 1.80078125 12.9453125 C2.19265625 13.6878125 2.58453125 14.4303125 2.98828125 15.1953125 C5.62828125 15.5253125 8.26828125 15.8553125 10.98828125 16.1953125 C11.31828125 17.5153125 11.64828125 18.8353125 11.98828125 20.1953125 C8.15839019 21.99761418 5.20706317 22.39153491 0.98828125 22.1953125 C0.98828125 25.4953125 0.98828125 28.7953125 0.98828125 32.1953125 C7.91828125 32.6903125 7.91828125 32.6903125 14.98828125 33.1953125 C14.98828125 34.5153125 14.98828125 35.8353125 14.98828125 37.1953125 C12.67884413 39.50474962 7.15179944 38.42823876 4.05078125 38.4453125 C2.65182617 38.47625 2.65182617 38.47625 1.22460938 38.5078125 C0.33322266 38.51296875 -0.55816406 38.518125 -1.4765625 38.5234375 C-2.70814087 38.53745605 -2.70814087 38.53745605 -3.96459961 38.55175781 C-4.64014893 38.43413086 -5.31569824 38.31650391 -6.01171875 38.1953125 C-8.44276604 34.54874156 -8.23043657 31.95361244 -8.09375 27.75390625 C-8.07583908 27.03042496 -8.05792816 26.30694366 -8.03947449 25.5615387 C-7.99832484 24.03411946 -7.95175188 22.50683806 -7.90014648 20.97973633 C-7.8243956 18.63827901 -7.77548238 16.29726861 -7.72851562 13.95507812 C-7.68522062 12.4713058 -7.64035225 10.98757838 -7.59375 9.50390625 C-7.58108597 8.80180527 -7.56842194 8.09970428 -7.55537415 7.37632751 C-7.47583008 5.40405273 -7.47583008 5.40405273 -7.01171875 2.1953125 C-3.96490814 0.16410543 -3.41053551 -0.05128625 0 0 Z " fill="#282828" transform="translate(249.01171875,573.8046875)"/>
<path d="M0 0 C2.7277875 1.12761027 4.56340473 2.20215769 6.00439453 4.83544922 C6.9402511 7.18109976 7.76909292 9.53989472 8.5625 11.9375 C8.85697021 12.78763672 9.15144043 13.63777344 9.45483398 14.51367188 C10.04226097 16.21609691 10.62256058 17.92099983 11.1953125 19.62841797 C11.89996114 21.7051646 12.63953433 23.76198716 13.40625 25.81640625 C13.7878125 26.86699219 14.169375 27.91757812 14.5625 29 C14.89378906 29.9075 15.22507812 30.815 15.56640625 31.75 C16 34 16 34 14 37 C11.8125 37 11.8125 37 9 36 C7.8359375 34.15234375 7.8359375 34.15234375 6.6875 31.9375 C5.01470668 28.8795859 5.01470668 28.8795859 2.046875 27.33203125 C-1.49226781 27.19439792 -3.42419897 27.57982087 -6.3125 29.6875 C-8.03843223 32.05266639 -9.57812246 34.44062043 -11 37 C-12.32 36.34 -13.64 35.68 -15 35 C-13.91835519 28.94168253 -11.79433718 23.2889807 -9.75 17.5 C-9.36714844 16.37207031 -8.98429688 15.24414062 -8.58984375 14.08203125 C-6.52896036 8.25779558 -4.93658802 3.85123888 0 0 Z M-1 11 C-3.60250805 14.37362154 -4.36265043 16.76907828 -4 21 C-1.09926819 21.67801034 -1.09926819 21.67801034 2 22 C2.66 21.34 3.32 20.68 4 20 C3.80109544 17.76655935 3.80109544 17.76655935 3.125 15.375 C2.92132812 14.55773437 2.71765625 13.74046875 2.5078125 12.8984375 C2.34023438 12.27195312 2.17265625 11.64546875 2 11 C1.01 11 0.02 11 -1 11 Z " fill="#282828" transform="translate(528,574)"/>
<path d="M0 0 C0.75732422 0.00644531 1.51464844 0.01289062 2.29492188 0.01953125 C3.08060547 0.03628906 3.86628906 0.05304687 4.67578125 0.0703125 C5.47306641 0.07933594 6.27035156 0.08835937 7.09179688 0.09765625 C9.05742025 0.12119665 11.022889 0.15706703 12.98828125 0.1953125 C13.55078125 2.1328125 13.55078125 2.1328125 13.98828125 4.1953125 C11.98654858 6.19704517 8.05121233 5.57028893 5.3359375 5.71875 C2.62083479 5.98265777 2.62083479 5.98265777 0.98828125 9.1953125 C0.82128893 12.32053083 0.82128893 12.32053083 0.98828125 15.1953125 C4.28828125 15.5253125 7.58828125 15.8553125 10.98828125 16.1953125 C11.31828125 17.1853125 11.64828125 18.1753125 11.98828125 19.1953125 C10.86328125 20.6953125 10.86328125 20.6953125 8.98828125 22.1953125 C5.92578125 22.3203125 5.92578125 22.3203125 2.98828125 22.1953125 C0.8512632 22.99467892 0.8512632 22.99467892 0.23828125 24.9453125 C-0.25096265 27.73702903 -0.25096265 27.73702903 1.98828125 32.1953125 C6.27828125 32.5253125 10.56828125 32.8553125 14.98828125 33.1953125 C14.98828125 34.5153125 14.98828125 35.8353125 14.98828125 37.1953125 C12.68818352 39.49541023 7.14037459 38.38068615 4.05078125 38.3828125 C3.11814453 38.39505859 2.18550781 38.40730469 1.22460938 38.41992188 C0.33322266 38.42185547 -0.55816406 38.42378906 -1.4765625 38.42578125 C-2.29761475 38.42989014 -3.11866699 38.43399902 -3.96459961 38.43823242 C-6.01171875 38.1953125 -6.01171875 38.1953125 -8.01171875 36.1953125 C-8.15302505 33.63255586 -8.17390456 31.19067305 -8.09375 28.6328125 C-8.07583908 27.88572021 -8.05792816 27.13862793 -8.03947449 26.36889648 C-7.99826061 24.78842921 -7.95167359 23.20809434 -7.90014648 21.62792969 C-7.82452642 19.20516989 -7.77553731 16.78283818 -7.72851562 14.359375 C-7.68521197 12.8254743 -7.64034264 11.29161682 -7.59375 9.7578125 C-7.58108597 9.03070068 -7.56842194 8.30358887 -7.55537415 7.55444336 C-7.47583008 5.51171875 -7.47583008 5.51171875 -7.01171875 2.1953125 C-3.96490814 0.16410543 -3.41053551 -0.05128625 0 0 Z " fill="#252525" transform="translate(452.01171875,573.8046875)"/>
<path d="M0 0 C0.72380859 0.00322266 1.44761719 0.00644531 2.19335938 0.00976562 C2.90556641 -0.00634766 3.61777344 -0.02246094 4.3515625 -0.0390625 C8.89242072 -0.04326311 11.76336258 0.55112657 15.38085938 3.32226562 C18.10556255 6.82545542 17.88931439 11.07666624 17.38085938 15.32226562 C16.29816495 18.49816927 15.26769734 19.84021544 12.31835938 21.44335938 C9.30928098 22.79447517 6.24853117 23.99536111 3.16210938 25.15820312 C1.19393804 26.18655947 1.19393804 26.18655947 0.65820312 28.38085938 C0.54605469 29.16589844 0.43390625 29.9509375 0.31835938 30.75976562 C-0.19524103 34.26263579 -0.73231883 36.13571248 -3.61914062 38.32226562 C-5.80664062 38.00976562 -5.80664062 38.00976562 -7.61914062 37.32226562 C-9.07873602 31.33587072 -8.58865047 25.34102027 -8.37719727 19.23754883 C-8.30652086 17.13119616 -8.25242347 15.02482656 -8.19921875 12.91796875 C-8.15660477 11.58004571 -8.11301907 10.24215319 -8.06835938 8.90429688 C-8.03057373 7.6897583 -7.99278809 6.47521973 -7.95385742 5.22387695 C-7.34235651 -0.07713566 -4.79156762 0.04902999 0 0 Z M-0.61914062 6.32226562 C-0.97715334 9.14966094 -0.97715334 9.14966094 -0.93164062 12.32226562 C-0.94839844 13.39476562 -0.96515625 14.46726562 -0.98242188 15.57226562 C-0.86253906 16.47976563 -0.74265625 17.38726563 -0.61914062 18.32226562 C2.12780463 20.58368821 2.12780463 20.58368821 4.88085938 20.19726562 C8.02170916 19.0979682 8.8936634 18.29665758 10.38085938 15.32226562 C10.87943365 11.33367143 11.00865003 9.22907434 8.69335938 5.88476562 C5.08856394 3.44909303 2.51762855 3.18549645 -0.61914062 6.32226562 Z " fill="#2F2F2F" transform="translate(559.619140625,573.677734375)"/>
<path d="M0 0 C2.1875 0.0625 2.1875 0.0625 5 1 C7.38627358 3.56685645 10 6.38918448 10 10 C12.91172947 9.33446184 14.59699178 8.6076124 16.26953125 6.0859375 C16.67558594 5.35632813 17.08164062 4.62671875 17.5 3.875 C18.73046875 1.7109375 18.73046875 1.7109375 20 0 C22.8125 -0.5 22.8125 -0.5 25 0 C24.31669135 4.93020168 22.26231695 7.66053101 19.27734375 11.5234375 C17.51170773 14.94671957 17.54253592 17.18779933 18 21 C19.68611751 24.36991544 19.68611751 24.36991544 22 27.4375 C22.7425 28.48808594 23.485 29.53867187 24.25 30.62109375 C24.8275 31.40613281 25.405 32.19117188 26 33 C25.34 34.32 24.68 35.64 24 37 C20.56140181 36.72087372 19.3071956 36.34760044 16.98046875 33.71484375 C16.38878906 32.79832031 15.79710937 31.88179687 15.1875 30.9375 C14.58292969 30.01839844 13.97835938 29.09929688 13.35546875 28.15234375 C12.90816406 27.44207031 12.46085937 26.73179687 12 26 C7.66293613 27.75504067 6.47779146 30.23574771 4.34375 34.22265625 C3 36 3 36 0.84375 36.74609375 C0.2353125 36.82988281 -0.373125 36.91367187 -1 37 C-1.7109375 34.8125 -1.7109375 34.8125 -2 32 C-0.6015625 29.5 -0.6015625 29.5 1.375 27 C3.98516978 23.67229351 5.71174012 21.2895815 6 17 C5.39078048 14.86845148 5.39078048 14.86845148 4.25 12.9375 C3.88003906 12.24914062 3.51007813 11.56078125 3.12890625 10.8515625 C1.98412049 8.87405064 1.98412049 8.87405064 0.1875 6.8125 C-1 5 -1 5 -0.6875 2.25 C-0.460625 1.5075 -0.23375 0.765 0 0 Z " fill="#292929" transform="translate(275,575)"/>
<path d="M0 0 C1.95679688 -0.02513672 1.95679688 -0.02513672 3.953125 -0.05078125 C7.94310002 0.33097562 10.35001644 1.23983735 13.75 3.3125 C16.17284946 6.28599707 16.12395309 9.59383923 15.984375 13.35546875 C15.6086191 16.49303055 14.90063836 17.96634906 12.75 20.3125 C9.15440442 22.26692411 5.36112321 23.70726324 1.53515625 25.14453125 C-0.43954429 26.18135835 -0.43954429 26.18135835 -1.0078125 28.40625 C-1.18957031 29.59734375 -1.18957031 29.59734375 -1.375 30.8125 C-2.06081081 35.12331081 -2.06081081 35.12331081 -4.25 37.3125 C-6.875 37.4375 -6.875 37.4375 -9.25 37.3125 C-10.7095954 31.3261051 -10.21950985 25.33125465 -10.00805664 19.2277832 C-9.93738023 17.12143054 -9.88328284 15.01506093 -9.83007812 12.90820312 C-9.78746414 11.57028009 -9.74387844 10.23238757 -9.69921875 8.89453125 C-9.66143311 7.67999268 -9.62364746 6.4654541 -9.5847168 5.21411133 C-8.89197264 -0.79118726 -5.17363098 0.01521656 0 0 Z M-0.25 4.3125 C-2.67381048 6.73631048 -2.69016497 7.84144921 -3.0625 11.1875 C-3.17207031 12.05117188 -3.28164063 12.91484375 -3.39453125 13.8046875 C-3.21851602 16.85878953 -2.26473912 18.07390097 -0.25 20.3125 C2.76799494 19.97716723 4.55881813 19.44684402 7.0625 17.6875 C9.39737288 14.40138261 9.25169583 12.2543958 8.75 8.3125 C7.08556015 5.53843358 5.8407532 5.33657738 2.6875 4.5 C1.718125 4.438125 0.74875 4.37625 -0.25 4.3125 Z " fill="#2D2D2D" transform="translate(319.25,573.6875)"/>
<path d="M0 0 C2.375 0.1875 2.375 0.1875 5 1 C6.95721355 4.69829309 7.2288259 7.78329638 7.16015625 11.921875 C7.14919922 13.02917969 7.13824219 14.13648438 7.12695312 15.27734375 C7.10568359 16.42332031 7.08441406 17.56929687 7.0625 18.75 C7.0282421 21.03639782 6.99806195 23.32286169 6.97265625 25.609375 C6.95468994 26.61967773 6.93672363 27.62998047 6.91821289 28.67089844 C6.73361523 30.96090064 6.73361523 30.96090064 8 32 C10.18639453 32.07258946 12.37500389 32.08373783 14.5625 32.0625 C15.76003906 32.05347656 16.95757812 32.04445313 18.19140625 32.03515625 C19.58166016 32.01775391 19.58166016 32.01775391 21 32 C21.33 33.65 21.66 35.3 22 37 C17.30281282 39.4662586 13.29848102 39.05341417 8.1875 38.625 C7.00510742 38.53992188 7.00510742 38.53992188 5.79882812 38.453125 C3.86510039 38.31249026 1.93241405 38.15766112 0 38 C-1.95147627 33.90034951 -2.25720965 30.57433279 -2.265625 26.0546875 C-2.26753845 25.40299591 -2.2694519 24.75130432 -2.27142334 24.0798645 C-2.27277794 22.70997733 -2.26913239 21.340077 -2.26074219 19.97021484 C-2.24999683 17.87438245 -2.26067914 15.77940034 -2.2734375 13.68359375 C-2.27211645 12.34895645 -2.2695552 11.01431967 -2.265625 9.6796875 C-2.26336914 8.47038574 -2.26111328 7.26108398 -2.25878906 6.01513672 C-2 3 -2 3 0 0 Z " fill="#282828" transform="translate(343,574)"/>
<path d="M0 0 C1.423125 0.4021875 1.423125 0.4021875 2.875 0.8125 C5.06185173 5.18620346 3.78924661 11.214451 3.625 16 C3.59792969 17.22009766 3.57085937 18.44019531 3.54296875 19.69726562 C3.28462086 27.36853128 2.75769294 32.90027387 -1.875 39.1875 C-4.94306822 41.40332705 -7.3784075 41.67626027 -11.125 41.8125 C-12.115 41.1525 -13.105 40.4925 -14.125 39.8125 C-13.795 38.1625 -13.465 36.5125 -13.125 34.8125 C-12.17625 34.565 -11.2275 34.3175 -10.25 34.0625 C-7.10516302 33.14764821 -7.10516302 33.14764821 -5.9440918 31.03491211 C-5.02484086 28.54074185 -4.88134659 26.65764222 -4.89453125 24.00390625 C-4.89743164 22.63588867 -4.89743164 22.63588867 -4.90039062 21.24023438 C-4.91263672 20.29470703 -4.92488281 19.34917969 -4.9375 18.375 C-4.93814453 17.43333984 -4.93878906 16.49167969 -4.93945312 15.52148438 C-4.95701502 10.28692191 -4.95701502 10.28692191 -5.7019043 5.12084961 C-6.125 2.8125 -6.125 2.8125 -5.0625 0.9375 C-3.125 -0.1875 -3.125 -0.1875 0 0 Z " fill="#272727" transform="translate(503.125,574.1875)"/>
<path d="M0 0 C1.8046875 0.1328125 1.8046875 0.1328125 4 1 C5.6328125 3.6171875 5.6328125 3.6171875 7.125 6.875 C8.62624646 10.10306882 10.02271636 13.03407455 12 16 C12.44832764 17.3859885 12.86230388 18.78334419 13.25 20.1875 C14.63615848 24.55814256 16.74295785 27.49197326 19.58203125 31.0390625 C21.81098459 34.12152689 22.87358885 37.39818233 24 41 C24.54090504 42.60442364 25.082577 44.20858892 25.625 45.8125 C26.08439804 47.20798328 26.54285411 48.60377732 27 50 C27.33 50.99 27.66 51.98 28 53 C26.02 53.495 26.02 53.495 24 54 C23.48953125 52.89205078 23.48953125 52.89205078 22.96875 51.76171875 C20.33671166 46.25263851 17.61099246 41.27889847 13.875 36.4375 C10.5754405 32.06933316 8.65992591 28.09292022 7.0078125 22.8984375 C5.46332626 18.45654296 3.29781878 14.32936572 1.171875 10.140625 C-0.1586967 6.57469283 -0.20871598 3.77586178 0 0 Z " fill="#FF2020" transform="translate(165,601)"/>
<path d="M0 0 C0.268125 0.5775 0.53625 1.155 0.8125 1.75 C1.92138723 4.05896736 1.92138723 4.05896736 3.6875 5.9375 C5 8 5 8 4.8125 10.5625 C4 13 4 13 2 16 C0.01171875 16.51953125 0.01171875 16.51953125 -2.3125 16.8125 C-5.93998435 17.48533984 -7.71784583 18.24808239 -10.0625 21.125 C-10.701875 22.07375 -11.34125 23.0225 -12 24 C-13.875 23.6875 -13.875 23.6875 -16 23 C-18.36086122 19.45870816 -18.57269578 18.17249782 -18 14 C-15.9375 10.6875 -15.9375 10.6875 -13 8 C-9.1875 7.125 -9.1875 7.125 -6 7 C-5.67 6.01 -5.34 5.02 -5 4 C-5.99 3.67 -6.98 3.34 -8 3 C-5.36 2.01 -2.72 1.02 0 0 Z " fill="#FF2014" transform="translate(417,381)"/>
<path d="M0 0 C-3.43323628 4.72069989 -7.58083762 8.25144981 -12 12 C-12.51820313 12.47953125 -13.03640625 12.9590625 -13.5703125 13.453125 C-16.76035444 16.34682424 -19.73683098 17.70394366 -23.7890625 19.0546875 C-27.43827117 20.61494987 -30.47034899 23.02608087 -33.671875 25.34375 C-40.49528598 30.19798869 -40.49528598 30.19798869 -44.375 29.6875 C-44.91125 29.460625 -45.4475 29.23375 -46 29 C-44.5736452 25.38043298 -43.08061826 24.19910798 -39.625 22.5 C-36.91493027 21.09318037 -35.04838157 20.04838157 -32.875 17.875 C-30.73419672 15.73419672 -28.6301407 15.05374894 -25.84765625 13.97265625 C-23.65299038 12.81732474 -22.31220302 11.43747099 -20.625 9.625 C-16.9256276 5.67510577 -12.81632348 3.37700253 -8 1 C-6.94619141 0.42572266 -6.94619141 0.42572266 -5.87109375 -0.16015625 C-3.51919377 -1.21581073 -2.37919251 -0.84971161 0 0 Z " fill="#FF2222" transform="translate(680,674)"/>
<path d="M0 0 C0.33 0 0.66 0 1 0 C0.8547445 1.77088083 0.70875402 3.54170136 0.5625 5.3125 C0.48128906 6.29863281 0.40007813 7.28476562 0.31640625 8.30078125 C0.1454802 10.29913884 -0.03193579 12.29720711 -0.24621582 14.29138184 C-1.01273653 21.72393886 -1.13004345 29.0754923 -1.09765625 36.54296875 C-1.0962413 37.79257889 -1.09482635 39.04218903 -1.09336853 40.32966614 C-1.08875602 43.61258181 -1.07981038 46.89544602 -1.06866455 50.17834473 C-1.05833788 53.54402037 -1.05384708 56.90970362 -1.04882812 60.27539062 C-1.0378609 66.85028012 -1.02116975 73.42513586 -1 80 C-1.66 79.01 -2.32 78.02 -3 77 C-3.99 77.495 -3.99 77.495 -5 78 C-6.99147993 51.75037552 -7.75132609 25.4536789 0 0 Z " fill="#FFD6D5" transform="translate(39,380)"/>
<path d="M0 0 C0.90105469 0.19464844 1.80210937 0.38929688 2.73046875 0.58984375 C3.76107422 0.82380859 3.76107422 0.82380859 4.8125 1.0625 C4.8125 1.3925 4.8125 1.7225 4.8125 2.0625 C3.1625 2.0625 1.5125 2.0625 -0.1875 2.0625 C-0.44660156 2.80757812 -0.70570313 3.55265625 -0.97265625 4.3203125 C-4.6182324 12.54923359 -13.53439698 17.93961622 -21.1875 22.0625 C-21.8475 22.0625 -22.5075 22.0625 -23.1875 22.0625 C-22.92218837 15.56236514 -20.69577515 12.60336509 -16.1875 8.0625 C-15.300625 7.155 -14.41375 6.2475 -13.5 5.3125 C-12.736875 4.57 -11.97375 3.8275 -11.1875 3.0625 C-10.65125 2.485 -10.115 1.9075 -9.5625 1.3125 C-6.44774642 -1.51909417 -3.78253441 -0.835105 0 0 Z " fill="#FF2727" transform="translate(706.1875,649.9375)"/>
<path d="M0 0 C0.99 0.33 1.98 0.66 3 1 C2.7834375 1.8353125 2.7834375 1.8353125 2.5625 2.6875 C1.9592584 5.01712446 1.9592584 5.01712446 1.625 7.5 C0.89356362 10.4257455 0.21518125 11.93758987 -2 14 C-5 14.4375 -5 14.4375 -8 14 C-8.99 13.01 -9.98 12.02 -11 11 C-8.36 9.02 -5.72 7.04 -3 5 C-3.66 4.34 -4.32 3.68 -5 3 C-2.6875 1.4375 -2.6875 1.4375 0 0 Z " fill="#FF4242" transform="translate(285,139)"/>
<path d="M0 0 C0.66 0 1.32 0 2 0 C4.8394052 3.67452438 6 5.26886581 6 10 C7.1446875 10.433125 7.1446875 10.433125 8.3125 10.875 C11 12 11 12 14 14 C14 14.99 14 15.98 14 17 C12.68 16.67 11.36 16.34 10 16 C10.33 15.34 10.66 14.68 11 14 C9.9275 13.938125 8.855 13.87625 7.75 13.8125 C4 13 4 13 1.5625 10.9375 C-0.53874859 6.98715265 -0.30048996 4.43222695 0 0 Z " fill="#FF4545" transform="translate(216,661)"/>
<path d="M0 0 C2.64 0.33 5.28 0.66 8 1 C8 1.66 8 2.32 8 3 C11.3 2.67 14.6 2.34 18 2 C13.78474114 5.96730245 13.78474114 5.96730245 10 6.125 C9.01 6.08375 8.02 6.0425 7 6 C5.33066942 6.6599679 3.6635479 7.32558869 2 8 C1.01 7.67 0.02 7.34 -1 7 C-0.34 7 0.32 7 1 7 C0.34 6.01 -0.32 5.02 -1 4 C-0.625 1.8125 -0.625 1.8125 0 0 Z " fill="#FF5D5D" transform="translate(508,758)"/>
<path d="M0 0 C0.99 0 1.98 0 3 0 C2.67 1.32 2.34 2.64 2 4 C1.67 4 1.34 4 1 4 C0.7525 5.093125 0.505 6.18625 0.25 7.3125 C-1 11 -1 11 -2.75 13 C-5.80378969 14.35723986 -7.81814995 13.79546251 -11 13 C-7.38671875 8.3125 -7.38671875 8.3125 -6 7 C-5.01 7 -4.02 7 -3 7 C-2.01 4.69 -1.02 2.38 0 0 Z " fill="#FF4E4E" transform="translate(701,630)"/>
<path d="M0 0 C2.35778619 3.53667928 2.94284357 6.84005552 3.6875 10.9375 C3.82994141 11.65357422 3.97238281 12.36964844 4.11914062 13.10742188 C5.39082654 19.93403432 5.39082654 19.93403432 4 23 C3.34 23.33 2.68 23.66 2 24 C-0.07422976 15.96235969 -0.2144997 8.27015524 0 0 Z " fill="#FFECEC" transform="translate(26,472)"/>
<path d="M0 0 C0.28875 0.598125 0.5775 1.19625 0.875 1.8125 C2.04742026 4.19327792 2.04742026 4.19327792 4 7 C4.70491267 9.32206525 5.37212429 11.65593068 6 14 C6.33 14.99 6.66 15.98 7 17 C5.68 17.33 4.36 17.66 3 18 C-0.95317148 11.53117395 -1.39765083 7.41362614 0 0 Z " fill="#FF4848" transform="translate(186,637)"/>
<path d="M0 0 C1.69752187 0.25245197 3.38471545 0.57645775 5.0625 0.9375 C5.98160156 1.13214844 6.90070313 1.32679688 7.84765625 1.52734375 C8.91306641 1.76130859 8.91306641 1.76130859 10 2 C10.33 3.65 10.66 5.3 11 7 C10.01 7.495 10.01 7.495 9 8 C6.375 6.6875 6.375 6.6875 4 5 C4 4.34 4 3.68 4 3 C2.68 3 1.36 3 0 3 C-0.33 3.66 -0.66 4.32 -1 5 C-1 1 -1 1 0 0 Z " fill="#FF5252" transform="translate(164,634)"/>
<path d="M0 0 C4.91935902 4.11619836 9.52647956 8.40410362 14 13 C9.9883804 13 7.57906142 11.09512932 4.3125 9 C3.70599609 8.6184375 3.09949219 8.236875 2.47460938 7.84375 C0.97928801 6.90181528 -0.51086593 5.95168625 -2 5 C-1 3 -1 3 0 2 C0 1.34 0 0.68 0 0 Z " fill="#FFC1C1" transform="translate(210,688)"/>
<path d="M0 0 C1.3303125 0.25716797 1.3303125 0.25716797 2.6875 0.51953125 C5 1.1875 5 1.1875 7 3.1875 C7 4.1775 7 5.1675 7 6.1875 C1.31953056 5.24694297 -2.72424312 4.32532924 -7 0.1875 C-4.31943083 -1.15278459 -2.91141236 -0.58820686 0 0 Z " fill="#FF4A4A" transform="translate(494,103.8125)"/>
<path d="M0 0 C1 3 1 3 -0.1875 5.92578125 C-3.70196357 12.49267762 -6.83214296 17.59438783 -13 22 C-11.60703384 19.12309847 -10.07120503 16.39498494 -8.3984375 13.671875 C-7.90859375 12.87265625 -7.41875 12.0734375 -6.9140625 11.25 C-6.40617188 10.425 -5.89828125 9.6 -5.375 8.75 C-4.859375 7.90953125 -4.34375 7.0690625 -3.8125 6.203125 C-2.54312548 4.13451467 -1.2722465 2.06684478 0 0 Z " fill="#FFCBCB" transform="translate(763,584)"/>
<path d="M0 0 C0 4.25210362 -2.20791455 7.04929552 -4.375 10.5625 C-4.7875 11.24763672 -5.2 11.93277344 -5.625 12.63867188 C-7.2851706 15.36724258 -8.73138153 17.73138153 -11 20 C-11.87109375 17.98828125 -11.87109375 17.98828125 -12 15 C-10.35155166 12.12390161 -8.22213292 9.69229067 -6.0625 7.1875 C-5.48564453 6.49462891 -4.90878906 5.80175781 -4.31445312 5.08789062 C-2.88937655 3.38015423 -1.45136963 1.6853899 0 0 Z " fill="#FFDFDF" transform="translate(749,606)"/>
<path d="M0 0 C0.33 0 0.66 0 1 0 C0.37084903 7.67028737 -0.29099142 15.33667323 -1 23 C-1.99 22.34 -2.98 21.68 -4 21 C-3.54034292 13.69303751 -2.11670277 7.00242552 0 0 Z " fill="#FFBCBC" transform="translate(39,380)"/>
<path d="M0 0 C0.66 1.32 1.32 2.64 2 4 C1.4225 4.2475 0.845 4.495 0.25 4.75 C-2.12993597 5.91575822 -2.12993597 5.91575822 -3.9375 8.125 C-6 10 -6 10 -8.75 10.25 C-9.4925 10.1675 -10.235 10.085 -11 10 C-11 9.34 -11 8.68 -11 8 C-9.35 7.67 -7.7 7.34 -6 7 C-5.67 6.01 -5.34 5.02 -5 4 C-5.99 3.67 -6.98 3.34 -8 3 C-5.36 2.01 -2.72 1.02 0 0 Z " fill="#FF7B75" transform="translate(417,381)"/>
<path d="M0 0 C1.32 0.33 2.64 0.66 4 1 C4 3.31 4 5.62 4 8 C2.02 8 0.04 8 -2 8 C-2.33 6.68 -2.66 5.36 -3 4 C-2.34 3.67 -1.68 3.34 -1 3 C-0.67 2.01 -0.34 1.02 0 0 Z " fill="#FF2E26" transform="translate(477,292)"/>
<path d="M0 0 C2.46715382 2.29725999 4.27885735 4.74690054 6.125 7.5625 C6.64320313 8.34753906 7.16140625 9.13257813 7.6953125 9.94140625 C9 12 9 12 10 14 C8.68 14.33 7.36 14.66 6 15 C3.36177976 11.89621148 2.29634269 9.18537076 1.3125 5.25 C1.06113281 4.26515625 0.80976563 3.2803125 0.55078125 2.265625 C0.36902344 1.51796875 0.18726563 0.7703125 0 0 Z " fill="#FFDADA" transform="translate(194,664)"/>
<path d="M0 0 C4.29 0.99 8.58 1.98 13 3 C13 3.66 13 4.32 13 5 C8.78892722 6.26332183 6.4543291 6.00441956 2.625 4.0625 C1.40811576 3.39025121 0.1966397 2.70765749 -1 2 C-0.67 1.34 -0.34 0.68 0 0 Z " fill="#FFE7E7" transform="translate(451,767)"/>
<path d="M0 0 C-2.125 2.5625 -2.125 2.5625 -5 5 C-8.3125 4.8125 -8.3125 4.8125 -11 4 C-7.39987093 0.15158617 -5.25169925 -1.6298377 0 0 Z " fill="#FF4B4B" transform="translate(680,674)"/>
<path d="M0 0 C0.99 0.33 1.98 0.66 3 1 C2.7834375 1.8353125 2.7834375 1.8353125 2.5625 2.6875 C1.97230872 5.11384195 1.476571 7.54906345 1 10 C0.67 8.68 0.34 7.36 0 6 C-1.32 6.33 -2.64 6.66 -4 7 C-3.67 6.34 -3.34 5.68 -3 5 C-3.66 4.34 -4.32 3.68 -5 3 C-2.6875 1.4375 -2.6875 1.4375 0 0 Z " fill="#FFADAD" transform="translate(285,139)"/>
<path d="M0 0 C1.4606285 2.64738916 2 3.89448334 2 7 C4.475 7.99 4.475 7.99 7 9 C7 9.66 7 10.32 7 11 C6.01 11 5.02 11 4 11 C3.67 10.34 3.34 9.68 3 9 C1.35857037 7.9590934 -0.30712215 6.95495674 -2 6 C-1.34 4.02 -0.68 2.04 0 0 Z " fill="#FF7171" transform="translate(727,265)"/>
<path d="M0 0 C0.99 0 1.98 0 3 0 C3 0.66 3 1.32 3 2 C6.3 1.67 9.6 1.34 13 1 C10.16458518 3.75202027 8.84576357 5 4.8125 5 C2 4 2 4 0.625 1.9375 C0.41875 1.298125 0.2125 0.65875 0 0 Z " fill="#FFCECE" transform="translate(513,759)"/>
<path d="M0 0 C2.97 1.65 5.94 3.3 9 5 C9 5.99 9 6.98 9 8 C7.68 7.67 6.36 7.34 5 7 C5.33 6.34 5.66 5.68 6 5 C4.02 4.34 2.04 3.68 0 3 C0 2.01 0 1.02 0 0 Z " fill="#FFDEDE" transform="translate(221,670)"/>
<path d="M0 0 C0.33 0.66 0.66 1.32 1 2 C1.66 2.33 2.32 2.66 3 3 C2.360625 3.2475 1.72125 3.495 1.0625 3.75 C-1.18741541 4.81562433 -1.18741541 4.81562433 -1.75 7.125 C-1.8325 7.74375 -1.915 8.3625 -2 9 C-3.32 9 -4.64 9 -6 9 C-4.47291037 5.56404834 -2.40072955 2.88087546 0 0 Z " fill="#FFE1E0" transform="translate(720,641)"/>
<path d="M0 0 C2.02350324 3.03525486 2.32124018 4.19426202 2.625 7.6875 C2.69976563 8.49574219 2.77453125 9.30398438 2.8515625 10.13671875 C2.90054687 10.75160156 2.94953125 11.36648438 3 12 C2.34 12 1.68 12 1 12 C0.67 12.66 0.34 13.32 0 14 C0 9.38 0 4.76 0 0 Z " fill="#FFD2D2" transform="translate(26,472)"/>
<path d="M0 0 C0.33 0 0.66 0 1 0 C1 4.62 1 9.24 1 14 C-2 10 -2 10 -2.109375 7.67578125 C-1.99078125 6.89589844 -1.8721875 6.11601562 -1.75 5.3125 C-1.64171875 4.52488281 -1.5334375 3.73726563 -1.421875 2.92578125 C-1 1 -1 1 0 0 Z " fill="#FFF2F2" transform="translate(36,400)"/>
<path d="M0 0 C0.99 0 1.98 0 3 0 C2.67 1.32 2.34 2.64 2 4 C1.67 4 1.34 4 1 4 C0.67 5.65 0.34 7.3 0 9 C-1.32 8.67 -2.64 8.34 -4 8 C-2.68 5.36 -1.36 2.72 0 0 Z " fill="#FFDEDE" transform="translate(701,630)"/>
<path d="M0 0 C1.485 0.99 1.485 0.99 3 2 C3.29296875 4.1640625 3.29296875 4.1640625 3.1875 6.625 C3.16042969 7.44226563 3.13335937 8.25953125 3.10546875 9.1015625 C3.07066406 9.72804688 3.03585938 10.35453125 3 11 C2.01 11.495 2.01 11.495 1 12 C0.03929566 9.11788698 -0.10581883 7.30149956 -0.0625 4.3125 C-0.05347656 3.50425781 -0.04445313 2.69601562 -0.03515625 1.86328125 C-0.02355469 1.24839844 -0.01195313 0.63351562 0 0 Z " fill="#FFF6F6" transform="translate(118,481)"/>
<path d="M0 0 C0.33 0.99 0.66 1.98 1 3 C3.97 3 6.94 3 10 3 C10.33 3.66 10.66 4.32 11 5 C10.05125 4.95875 9.1025 4.9175 8.125 4.875 C4.89755144 4.65026182 4.89755144 4.65026182 3 7 C1.68 6.01 0.36 5.02 -1 4 C-0.67 2.68 -0.34 1.36 0 0 Z " fill="#FFB2B0" transform="translate(383,387)"/>
<path d="M0 0 C1.6396875 0.0928125 1.6396875 0.0928125 3.3125 0.1875 C3.6425 1.1775 3.9725 2.1675 4.3125 3.1875 C0.6825 3.1875 -2.9475 3.1875 -6.6875 3.1875 C-3.6875 0.1875 -3.6875 0.1875 0 0 Z " fill="#FFEEEE" transform="translate(353.6875,791.8125)"/>
<path d="M0 0 C0.33 1.32 0.66 2.64 1 4 C-0.98 4.66 -2.96 5.32 -5 6 C-5 5.34 -5 4.68 -5 4 C-5.99 3.67 -6.98 3.34 -8 3 C-5.36 2.01 -2.72 1.02 0 0 Z " fill="#FFDFDE" transform="translate(417,381)"/>
<path d="M0 0 C1.45945288 0.08708669 2.91765868 0.19526907 4.375 0.3125 C5.59316406 0.39951172 5.59316406 0.39951172 6.8359375 0.48828125 C9 1 9 1 11 4 C6.44262737 3.56179109 3.42346555 3.14958831 0 0 Z " fill="#FFD4D4" transform="translate(490,104)"/>
<path d="M0 0 C0.66 1.32 1.32 2.64 2 4 C4.41645782 4.16687448 4.41645782 4.16687448 7 4 C7.66 3.34 8.32 2.68 9 2 C9 3.32 9 4.64 9 6 C5.7 6 2.4 6 -1 6 C-0.67 4.02 -0.34 2.04 0 0 Z " fill="#D4D4D4" transform="translate(590,591)"/>
<path d="M0 0 C0.99 0.33 1.98 0.66 3 1 C3.33 1.99 3.66 2.98 4 4 C3.01 4.495 3.01 4.495 2 5 C1.59270772 7.32156597 1.25561323 9.6568787 1 12 C0.67 12 0.34 12 0 12 C0 8.04 0 4.08 0 0 Z " fill="#C6C6C6" transform="translate(623,585)"/>
<path d="M0 0 C2.4375 0.6875 2.4375 0.6875 5 2 C5.8125 4.625 5.8125 4.625 6 7 C3.95880212 5.38405168 1.95927063 3.7143618 0 2 C0 1.34 0 0.68 0 0 Z " fill="#FFE6E5" transform="translate(191,675)"/>
<path d="M0 0 C0.33 0.99 0.66 1.98 1 3 C1.928125 3 2.85625 3 3.8125 3 C5.875 3 7.9375 3 10 3 C10 3.66 10 4.32 10 5 C6.7 5 3.4 5 0 5 C0 3.35 0 1.7 0 0 Z " fill="#D0D0D0" transform="translate(523,592)"/>
<path d="M0 0 C1.98 0 3.96 0 6 0 C6 1.32 6 2.64 6 4 C4.35 4 2.7 4 1 4 C0.67 2.68 0.34 1.36 0 0 Z " fill="#FFF3F3" transform="translate(474,296)"/>
<path d="M0 0 C2.97 0.99 5.94 1.98 9 3 C8.34 4.32 7.68 5.64 7 7 C5.83040013 6.02433888 4.66438823 5.044375 3.5 4.0625 C2.8503125 3.51722656 2.200625 2.97195313 1.53125 2.41015625 C1.0259375 1.94480469 0.520625 1.47945312 0 1 C0 0.67 0 0.34 0 0 Z " fill="#FFCDCD" transform="translate(230,724)"/>
<path d="M0 0 C0.99 0 1.98 0 3 0 C5.125 4.625 5.125 4.625 4 8 C2 6.25 2 6.25 0 4 C0 2.68 0 1.36 0 0 Z " fill="#FFE2E2" transform="translate(31,565)"/>
<path d="M0 0 C3.875 1.75 3.875 1.75 5 4 C3.35 3.67 1.7 3.34 0 3 C0.33 4.32 0.66 5.64 1 7 C0.34 6.67 -0.32 6.34 -1 6 C-1.042721 4.33388095 -1.04063832 2.66617115 -1 1 C-0.67 0.67 -0.34 0.34 0 0 Z " fill="#FFDFDF" transform="translate(442,375)"/>
<path d="M0 0 C0.33 0.99 0.66 1.98 1 3 C-0.25 4.5625 -0.25 4.5625 -2 6 C-4.1875 5.6875 -4.1875 5.6875 -6 5 C-4.02 3.35 -2.04 1.7 0 0 Z " fill="#FFE8E8" transform="translate(244,164)"/>
<path d="M0 0 C2 3 2 3 1.625 5.6875 C1.41875 6.450625 1.2125 7.21375 1 8 C-0.65 7.67 -2.3 7.34 -4 7 C-3.67 6.34 -3.34 5.68 -3 5 C-2.34 5 -1.68 5 -1 5 C-0.67 3.35 -0.34 1.7 0 0 Z " fill="#FFC6C6" transform="translate(191,658)"/>
<path d="M0 0 C0.33 0 0.66 0 1 0 C1 2.64 1 5.28 1 8 C0.01 7.67 -0.98 7.34 -2 7 C-2.33 6.01 -2.66 5.02 -3 4 C-2.34 3.67 -1.68 3.34 -1 3 C-0.67 2.01 -0.34 1.02 0 0 Z " fill="#CDCDCD" transform="translate(642,592)"/>
<path d="M0 0 C0.33 0 0.66 0 1 0 C1 2.97 1 5.94 1 9 C0.67 9 0.34 9 0 9 C0 7.35 0 5.7 0 4 C-1.32 4.33 -2.64 4.66 -4 5 C-2.69254251 3.31295807 -1.35827971 1.64639965 0 0 Z " fill="#FFCDCD" transform="translate(191,210)"/>
<path d="M0 0 C2.97 1.98 2.97 1.98 6 4 C2.98968256 4.93423645 2.13349732 5.04449911 -1 4 C-0.67 2.68 -0.34 1.36 0 0 Z " fill="#FFCDCD" transform="translate(526,109)"/>
<path d="M0 0 C2.31 0 4.62 0 7 0 C7 0.99 7 1.98 7 3 C4.69 2.67 2.38 2.34 0 2 C0 1.34 0 0.68 0 0 Z " fill="#FFEEEE" transform="translate(463,101)"/>
</svg>
